<svg width="100" height="100" viewBox="0 0 100 100" fill="none" xmlns="http://www.w3.org/2000/svg">
<g clip-path="url(#clip0_55_1336)">
<path d="M28.2817 41.7744C28.2817 42.9996 28.4145 43.9928 28.6461 44.7212C28.9401 45.5406 29.2942 46.3373 29.7053 47.1047C29.8709 47.3695 29.9369 47.6343 29.9369 47.8663C29.9369 48.1971 29.7385 48.5283 29.3081 48.8595L27.2225 50.2499C26.9245 50.4487 26.6265 50.5479 26.3613 50.5479C26.0305 50.5479 25.6993 50.3823 25.3681 50.0843C24.9217 49.6053 24.5227 49.0842 24.1766 48.5283C23.8454 47.9659 23.5142 47.3363 23.1502 46.5751C20.5676 49.6207 17.3231 51.1436 13.4167 51.1439C10.636 51.1439 8.41764 50.3491 6.79527 48.7603C5.17329 47.1707 4.3457 45.052 4.3457 42.4036C4.3457 39.5897 5.33889 37.3053 7.35845 35.5837C9.37762 33.8622 12.0596 33.0014 15.4695 33.0014C16.5951 33.0014 17.7539 33.1006 18.9787 33.2662C20.2038 33.4318 21.4618 33.6966 22.7862 33.9946V31.5778C22.7862 29.0615 22.2562 27.3071 21.2298 26.2807C20.1706 25.2543 18.3827 24.7575 15.8335 24.7575C14.6747 24.7575 13.4831 24.8903 12.258 25.1883C11.0328 25.4863 9.84121 25.8503 8.68243 26.3139C8.15284 26.5455 7.75564 26.6779 7.52365 26.7443C7.29166 26.8107 7.12646 26.8435 6.99406 26.8435C6.53047 26.8435 6.29887 26.5123 6.29887 25.8171V24.1947C6.29887 23.6651 6.36527 23.268 6.53047 23.0364C6.69607 22.8044 6.99406 22.5728 7.45765 22.3412C8.6163 21.7449 10.0067 21.2483 11.6288 20.8512C13.2515 20.4208 14.9731 20.2224 16.7939 20.2224C20.7338 20.2224 23.6142 21.116 25.4681 22.904C27.2889 24.6915 28.2161 27.4063 28.2161 31.0482V41.7744H28.2817ZM14.8403 46.8067C15.9331 46.8067 17.0587 46.6083 18.2503 46.2107C19.4422 45.8136 20.5018 45.0852 21.3954 44.092C21.9254 43.4632 22.3226 42.768 22.521 41.9732C22.7198 41.1788 22.8522 40.2185 22.8522 39.0929V37.7025C21.8481 37.4583 20.8312 37.2704 19.8062 37.1397C18.7741 37.0087 17.7347 36.9423 16.6943 36.9409C14.4759 36.9409 12.854 37.3713 11.7616 38.2653C10.6692 39.1593 10.1392 40.4172 10.1392 42.0724C10.1392 43.6284 10.5364 44.7872 11.364 45.582C12.1588 46.4095 13.3175 46.8067 14.8403 46.8067ZM41.4251 50.3823C40.8291 50.3823 40.4319 50.2831 40.1671 50.0511C39.9023 49.8527 39.6703 49.3891 39.4719 48.7603L31.692 23.1688C31.4928 22.5064 31.3936 22.076 31.3936 21.8444C31.3936 21.3148 31.6584 21.0164 32.1884 21.0164H35.4328C36.0616 21.0164 36.4923 21.116 36.7239 21.3476C36.9887 21.5464 37.1875 22.01 37.3859 22.6388L42.9478 44.5556L48.1125 22.6388C48.2781 21.9768 48.4769 21.5464 48.7413 21.3476C49.0065 21.1492 49.4701 21.0168 50.0661 21.0168H52.7145C53.3433 21.0168 53.774 21.116 54.0384 21.3476C54.3036 21.5464 54.5352 22.01 54.6676 22.6388L59.8987 44.8204L65.6258 22.6388C65.8242 21.9768 66.0562 21.5464 66.2878 21.3476C66.5526 21.1492 66.983 21.0168 67.579 21.0168H70.6578C71.1877 21.0168 71.4857 21.2816 71.4857 21.8444C71.4857 22.01 71.4525 22.1756 71.4193 22.374C71.3861 22.5724 71.3201 22.8376 71.1877 23.2019L63.2087 48.7931C63.0103 49.4555 62.7786 49.8859 62.5135 50.0843C62.2487 50.2831 61.8183 50.4155 61.2559 50.4155H58.4088C57.7796 50.4155 57.3492 50.3163 57.084 50.0843C56.8192 49.8527 56.5876 49.4223 56.4552 48.7603L51.3233 27.4063L46.225 48.7267C46.0598 49.3891 45.861 49.8195 45.5962 50.0511C45.3314 50.2831 44.8678 50.3823 44.2722 50.3823H41.4251ZM83.9671 51.2763C82.2455 51.2763 80.524 51.0775 78.8688 50.6803C77.2132 50.2831 75.9224 49.8523 75.0617 49.3563C74.5317 49.0579 74.1673 48.7271 74.0353 48.4291C73.9065 48.1368 73.8389 47.8213 73.8365 47.5019V45.8136C73.8365 45.1184 74.1013 44.7872 74.5981 44.7872C74.8008 44.7879 75.0021 44.8216 75.1941 44.8868C75.3925 44.9532 75.6905 45.0852 76.0216 45.2176C77.1908 45.7322 78.4116 46.1207 79.6632 46.3763C80.96 46.6393 82.2799 46.7723 83.6031 46.7735C85.6887 46.7735 87.311 46.4095 88.4366 45.6812C89.5622 44.9528 90.1582 43.8936 90.1582 42.536C90.1582 41.6092 89.8602 40.8476 89.2642 40.2185C88.6682 39.5893 87.5426 39.0269 85.9207 38.4969L81.12 37.0073C78.7032 36.2457 76.9156 35.1201 75.8229 33.6302C74.7305 32.1734 74.1677 30.5514 74.1677 28.8299C74.1677 27.4395 74.4657 26.2144 75.0617 25.1547C75.6573 24.0955 76.452 23.1688 77.4452 22.4404C78.4384 21.6788 79.564 21.116 80.8884 20.7188C82.2123 20.3216 83.6027 20.156 85.0595 20.156C85.7879 20.156 86.5495 20.1892 87.2778 20.2884C88.0394 20.3876 88.7346 20.52 89.4298 20.6524C90.0918 20.818 90.721 20.9836 91.317 21.1824C91.9127 21.3808 92.3762 21.5793 92.7074 21.778C93.1709 22.0432 93.5017 22.308 93.7005 22.606C93.8992 22.8708 93.9985 23.2349 93.9985 23.6983V25.2543C93.9985 25.9495 93.7337 26.3139 93.2369 26.3139C92.9721 26.3139 92.5418 26.1811 91.9794 25.9163C90.0917 25.0555 87.9728 24.6251 85.6227 24.6251C83.7355 24.6251 82.2455 24.9231 81.2192 25.5523C80.1932 26.1811 79.6632 27.1415 79.6632 28.4987C79.6632 29.4258 79.9944 30.2202 80.6564 30.8494C81.3184 31.4786 82.5435 32.1074 84.2983 32.6702L88.9994 34.1602C91.383 34.9217 93.1045 35.9809 94.1309 37.3381C95.1573 38.6953 95.6541 40.2517 95.6541 41.9732C95.6541 43.3968 95.3557 44.688 94.7929 45.8136C94.1973 46.9391 93.4025 47.9323 92.3762 48.7271C91.3498 49.5547 90.125 50.1507 88.7014 50.5811C87.2115 51.0447 85.6555 51.2763 83.9671 51.2763Z" fill="#252F3E"/>
<path d="M90.2245 67.3659C79.3327 75.411 63.5074 79.6817 49.9008 79.6817C30.8312 79.6817 13.6491 72.6298 0.671307 60.91C-0.355073 59.9832 0.571715 58.7253 1.7965 59.4533C15.8338 67.5979 33.1487 72.5306 51.0596 72.5306C63.1434 72.5306 76.4192 70.0147 88.6357 64.85C90.4565 64.022 92.0125 66.0419 90.2245 67.3659ZM94.7604 62.2012C93.3701 60.4136 85.5566 61.3404 82.0143 61.7708C80.9547 61.9036 80.7891 60.9764 81.7495 60.2812C87.9734 55.9109 98.2036 57.1693 99.3952 58.6257C100.587 60.1156 99.064 70.3455 93.2373 75.2454C92.3437 76.007 91.4829 75.6098 91.8801 74.6166C93.2041 71.3386 96.1508 63.956 94.7604 62.2012Z" fill="#FF9900"/>
</g>
<defs>
<clipPath id="clip0_55_1336">
<rect width="100" height="59.755" fill="white" transform="translate(0 20.1226)"/>
</clipPath>
</defs>
</svg>
