<svg width="100%" height="100%" viewBox="0 0 100 100" fill="none" xmlns="http://www.w3.org/2000/svg">
<g clip-path="url(#clip0_59_422)">
<g clip-path="url(#clip1_59_422)">
<path d="M64.0604 76.9696C79.5911 76.9696 92.1812 64.883 92.1812 49.9735C92.1812 35.0639 79.5911 22.9773 64.0604 22.9773C48.5296 22.9773 35.9395 35.0639 35.9395 49.9735C35.9395 64.883 48.5296 76.9696 64.0604 76.9696Z" fill="#FFDE2D"/>
<path d="M35.939 76.9696C51.4698 76.9696 64.0599 64.883 64.0599 49.9735C64.0599 35.0639 51.4698 22.9773 35.939 22.9773C20.4083 22.9773 7.81812 35.0639 7.81812 49.9735C7.81812 64.883 20.4083 76.9696 35.939 76.9696Z" fill="#327EFF"/>
<path d="M64.0604 49.9735C64.0604 64.883 51.4699 76.9696 35.9392 76.9696V49.9735H64.0604ZM35.9392 49.9735C35.9392 35.0639 48.5294 22.9773 64.0604 22.9773V49.9735H35.9392Z" fill="#FF6446"/>
</g>
</g>
<defs>
<clipPath id="clip0_59_422">
<rect width="84.3667" height="54.0451" fill="white" transform="translate(7.81665 22.9773)"/>
</clipPath>
<clipPath id="clip1_59_422">
<rect width="84.3667" height="54.0451" fill="white" transform="translate(7.81665 22.9773)"/>
</clipPath>
</defs>
</svg>
