<svg width="100%" height="100%" viewBox="0 0 100 100" fill="none" xmlns="http://www.w3.org/2000/svg">
<path d="M0.000244141 44.3243L3.91636 35.246L47.3496 14.7754L43.9675 23.3196L0.000244141 44.3243Z" fill="#CE78A9"/>
<path d="M6.94248 60.8804L1.42432 48.242L37.7374 29.9075L34.1773 38.6297L10.3246 50.7341L16.7328 65.5085L6.94248 60.8804Z" fill="#D55D00"/>
<path d="M56.2503 0.241261L65.2834 4.26039L85.2586 47.9237L76.7534 44.4447L56.2503 0.241261Z" fill="#E59F01"/>
<path d="M39.6204 6.99507L52.3207 1.62103L70.241 38.1403L61.5598 34.4812L49.7275 10.4924L34.8812 16.7321L39.6204 6.99507Z" fill="white"/>
<path d="M42.7195 99.7175L33.6943 95.6805L13.8051 51.9779L22.3035 55.4738L42.7195 99.7175Z" fill="#0072B1"/>
<path d="M59.3647 92.9986L46.6538 98.3476L28.8055 61.7931L37.4795 65.4693L49.2645 89.4814L64.1231 83.2709L59.3647 92.9986Z" fill="#F0E442"/>
<path d="M99.1739 55.7172L95.3463 64.8331L52.1141 85.7252L55.413 77.1485L99.1739 55.7172Z" fill="#009F73"/>
<path d="M92.0707 39.2282L97.7116 51.8123L61.5785 70.4992L65.0536 61.7427L88.7875 49.4069L82.2359 34.6955L92.0707 39.2282Z" fill="#56B4E8"/>
</svg>
