<svg width="100%" height="100%" viewBox="0 0 100 100" fill="none" xmlns="http://www.w3.org/2000/svg">
<path d="M79.1667 25H20.8333C16.231 25 12.5 28.731 12.5 33.3333V79.1667C12.5 83.769 16.231 87.5 20.8333 87.5H79.1667C83.769 87.5 87.5 83.769 87.5 79.1667V33.3333C87.5 28.731 83.769 25 79.1667 25Z" stroke="currentColor" stroke-width="8.33333"/>
<path d="M12.5 41.6667C12.5 33.8083 12.5 29.8833 14.9417 27.4417C17.3833 25 21.3083 25 29.1667 25H70.8333C78.6917 25 82.6167 25 85.0583 27.4417C87.5 29.8833 87.5 33.8083 87.5 41.6667H12.5Z" fill="currentColor"/>
<path d="M29.1669 12.5V25M70.8335 12.5V25" stroke="currentColor" stroke-width="8.33333" stroke-linecap="round"/>
</svg>
