<svg width="100" height="100" viewBox="0 0 100 100" fill="none" xmlns="http://www.w3.org/2000/svg">
<path d="M90.8739 42.7081C90.6239 42.5414 88.5406 40.9164 84.0406 40.9164C82.8739 40.9164 81.7073 41.0414 80.5406 41.2498C79.6656 35.4164 74.7906 32.4581 74.5823 32.3331L73.3739 31.6248L72.6239 32.7498C71.6239 34.2498 70.8323 35.9581 70.4989 37.7081C69.6656 41.0414 70.1656 44.2081 71.8739 46.9164C69.8323 48.0831 66.4989 48.3748 65.7906 48.3748H10.9156C9.49894 48.3748 8.33228 49.5414 8.33228 50.9998C8.33228 55.7914 9.08228 60.5831 10.7489 65.0831C12.6239 70.0414 15.4573 73.7081 19.0823 75.9581C23.1656 78.4581 29.8739 79.8748 37.4989 79.8748C40.7906 79.8748 44.2073 79.5831 47.5823 78.9581C52.2489 78.1248 56.7489 76.4998 60.8739 74.1248C64.2902 72.1712 67.348 69.6489 69.9156 66.6664C74.2906 61.7914 76.8739 56.2498 78.7489 51.4581H79.5406C84.2906 51.4581 87.2489 49.5414 88.8739 47.9164C89.9573 46.9164 90.7489 45.7081 91.3323 44.2914L91.6656 43.2914L90.8739 42.7081ZM16.0406 46.8331H23.3739C23.7073 46.8331 24.0406 46.5414 24.0406 46.1664V39.5831C24.0406 39.2498 23.7489 38.9164 23.3739 38.9164H16.0406C15.6656 38.9164 15.3739 39.2081 15.3739 39.5831V46.1664C15.4156 46.5414 15.6656 46.8331 16.0406 46.8331ZM26.1656 46.8331H33.4989C33.8323 46.8331 34.1656 46.5414 34.1656 46.1664V39.5831C34.1656 39.2498 33.8739 38.9164 33.4989 38.9164H26.1656C25.7906 38.9164 25.4989 39.2081 25.4989 39.5831V46.1664C25.5406 46.5414 25.7906 46.8331 26.1656 46.8331ZM36.4573 46.8331H43.7489C44.1656 46.8331 44.4573 46.5414 44.4573 46.1664V39.5831C44.4573 39.2498 44.2073 38.9164 43.7489 38.9164H36.4573C36.1239 38.9164 35.8323 39.2081 35.8323 39.5831V46.1664C35.8323 46.5414 36.0823 46.8331 36.4573 46.8331ZM46.6239 46.8331H53.9989C54.3323 46.8331 54.6239 46.5414 54.6239 46.1664V39.5831C54.6239 39.2498 54.3739 38.9164 53.9989 38.9164H46.6239C46.2906 38.9164 45.9989 39.2081 45.9989 39.5831V46.1664C45.9989 46.5414 46.2906 46.8331 46.6239 46.8331ZM26.1656 37.4998H33.4989C33.8323 37.4998 34.1656 37.1248 34.1656 36.7498V30.2081C34.1656 29.8331 33.8739 29.5414 33.4989 29.5414H26.1656C25.7906 29.5414 25.4989 29.7914 25.4989 30.2081V36.7498C25.5406 37.1248 25.7906 37.4998 26.1656 37.4998ZM36.4573 37.4998H43.7489C44.1656 37.4998 44.4573 37.1248 44.4573 36.7498V30.2081C44.4573 29.8331 44.2073 29.5414 43.7489 29.5414H36.4573C36.1239 29.5414 35.8323 29.7914 35.8323 30.2081V36.7498C35.8323 37.1248 36.0823 37.4998 36.4573 37.4998ZM46.6239 37.4998H53.9989C54.3323 37.4998 54.6239 37.1248 54.6239 36.7498V30.2081C54.6239 29.8331 54.3323 29.5414 53.9989 29.5414H46.6239C46.2906 29.5414 45.9989 29.7914 45.9989 30.2081V36.7498C45.9989 37.1248 46.2906 37.4998 46.6239 37.4998ZM46.6239 27.9998H53.9989C54.3323 27.9998 54.6239 27.7081 54.6239 27.3331V20.8331C54.6239 20.4164 54.3323 20.1248 53.9989 20.1248H46.6239C46.2906 20.1248 45.9989 20.3748 45.9989 20.8331V27.3331C45.9989 27.6664 46.2906 27.9998 46.6239 27.9998ZM56.8739 46.8331H64.2073C64.5823 46.8331 64.8739 46.5414 64.8739 46.1664V39.5831C64.8739 39.2498 64.5823 38.9164 64.2073 38.9164H56.8739C56.5406 38.9164 56.2489 39.2081 56.2489 39.5831V46.1664C56.2489 46.5414 56.5406 46.8331 56.8739 46.8331Z" fill="#0288D1"/>
</svg>
