<svg width="100%" height="100%" viewBox="0 0 100 100" fill="none" xmlns="http://www.w3.org/2000/svg">
<path d="M79.1665 16.6663H20.8331C17.5179 16.6663 14.3385 17.9832 11.9943 20.3274C9.65009 22.6716 8.33313 25.8511 8.33313 29.1663V70.8329C8.33313 74.1481 9.65009 77.3276 11.9943 79.6718C14.3385 82.016 17.5179 83.3329 20.8331 83.3329H79.1665C82.4817 83.3329 85.6611 82.016 88.0053 79.6718C90.3495 77.3276 91.6665 74.1481 91.6665 70.8329V29.1663C91.6665 25.8511 90.3495 22.6716 88.0053 20.3274C85.6611 17.9832 82.4817 16.6663 79.1665 16.6663ZM76.3748 24.9996L49.9998 44.7913L23.6248 24.9996H76.3748ZM79.1665 74.9996H20.8331C19.7281 74.9996 18.6683 74.5606 17.8869 73.7792C17.1055 72.9978 16.6665 71.938 16.6665 70.8329V30.2079L47.4998 53.3329C48.221 53.8739 49.0983 54.1663 49.9998 54.1663C50.9013 54.1663 51.7786 53.8739 52.4998 53.3329L83.3331 30.2079V70.8329C83.3331 71.938 82.8942 72.9978 82.1128 73.7792C81.3313 74.5606 80.2715 74.9996 79.1665 74.9996Z" fill="currentColor"/>
</svg>
