<svg width="100%" height="100%" viewBox="0 0 100 100" fill="none" xmlns="http://www.w3.org/2000/svg">
<path d="M95.241 50C95.241 47.121 94.247 44.688 92.259 42.7C90.271 40.712 87.838 39.718 84.959 39.718V23.267C84.959 21.005 84.154 19.069 82.543 17.458C80.932 15.847 78.996 15.042 76.734 15.042H60.283V28.51H71.492V60.283H84.96C87.839 60.283 90.272 59.29 92.26 57.302C94.248 55.314 95.242 52.881 95.242 50.002L95.241 50Z" fill="#EA4335"/>
<path d="M50 4.75906C47.121 4.75906 44.688 5.75306 42.7 7.74106C40.712 9.72906 39.718 12.1621 39.718 15.0411H23.267C21.005 15.0411 19.069 15.8461 17.458 17.4571C15.847 19.0681 15.042 21.0041 15.042 23.2661V28.5081H60.283V15.0401C60.283 12.1611 59.289 9.72806 57.301 7.74006C55.313 5.75206 52.88 4.75806 50.001 4.75806L50 4.75906Z" fill="#4285F4"/>
<path d="M38.558 71.4911H28.509C29.864 70.7021 31.159 69.2821 32.384 68.2441C37.842 63.6201 40.848 57.1411 40.848 49.9991C40.848 42.8571 37.842 36.3791 32.384 31.7541C31.159 30.7161 29.864 29.2961 28.509 28.5071H15.041V38.8941C18.331 38.8941 21.21 39.9391 23.678 42.0301C26.146 44.1211 27.38 46.7771 27.38 49.9991C27.38 53.2211 26.146 55.8771 23.678 57.9681C21.21 60.0591 18.331 61.1041 15.041 61.1041V76.7331C15.041 78.9951 15.846 80.9311 17.457 82.5421C19.068 84.1531 21.004 84.9581 23.266 84.9581H38.557V71.4901L38.558 71.4911Z" fill="#34A853"/>
<path d="M71.491 71.491H38.558V84.959H76.733C78.995 84.959 80.932 84.154 82.542 82.543C84.153 80.932 84.958 78.996 84.958 76.734V60.283H71.49V71.492L71.491 71.491Z" fill="#FBBC04"/>
</svg>
