<svg width="100" height="100" viewBox="0 0 100 100" fill="none" xmlns="http://www.w3.org/2000/svg">
<path d="M37.5002 12.4995H50.0002V37.4995H37.5002C34.185 37.4995 31.0056 36.1826 28.6614 33.8383C26.3172 31.4941 25.0002 28.3147 25.0002 24.9995C25.0002 21.6843 26.3172 18.5049 28.6614 16.1607C31.0056 13.8165 34.185 12.4995 37.5002 12.4995Z" fill="#F4511E"/>
<path d="M62.4995 37.4995H49.9995V12.4995H62.4995C65.8147 12.4995 68.9941 13.8165 71.3383 16.1607C73.6825 18.5049 74.9995 21.6843 74.9995 24.9995C74.9995 28.3147 73.6825 31.4941 71.3383 33.8383C68.9941 36.1826 65.8147 37.4995 62.4995 37.4995Z" fill="#FF8A65"/>
<path d="M49.9998 50C49.9998 56.9036 55.5962 62.5 62.4998 62.5C69.4033 62.5 74.9998 56.9036 74.9998 50C74.9998 43.0964 69.4033 37.5 62.4998 37.5C55.5962 37.5 49.9998 43.0964 49.9998 50Z" fill="#29B6F6"/>
<path d="M37.5002 37.4998H50.0002V62.4998H37.5002C34.185 62.4998 31.0056 61.1828 28.6614 58.8386C26.3172 56.4944 25.0002 53.315 25.0002 49.9998C25.0002 46.6845 26.3172 43.5051 28.6614 41.1609C31.0056 38.8167 34.185 37.4998 37.5002 37.4998Z" fill="#7C4DFF"/>
<path d="M37.5002 62.5H50.0002V75C50.0002 78.3152 48.6833 81.4946 46.3391 83.8388C43.9949 86.183 40.8155 87.5 37.5002 87.5C34.185 87.5 31.0056 86.183 28.6614 83.8388C26.3172 81.4946 25.0002 78.3152 25.0002 75C25.0002 71.6848 26.3172 68.5054 28.6614 66.1612C31.0056 63.817 34.185 62.5 37.5002 62.5Z" fill="#00E676"/>
</svg>
