<svg width="100" height="100" viewBox="0 0 100 100" fill="none" xmlns="http://www.w3.org/2000/svg">
<path d="M37.0004 91.25C40.6566 92.7188 44.6254 93.5938 48.8129 93.75C54.4691 93.9375 59.8129 92.7813 64.6254 90.5625C58.8754 88.3125 53.6566 85 49.2191 80.875C46.3199 85.5041 42.0642 89.127 37.0316 91.25H37.0004Z" fill="#FF9100"/>
<path d="M49.1892 80.8742C39.0329 71.4992 32.8767 57.9054 33.4079 42.9992C33.4079 42.5304 33.4392 42.0304 33.4704 41.5617C28.9627 40.4115 24.232 40.4654 19.7517 41.7179C17.0329 46.4679 15.4079 51.9054 15.1892 57.7492C14.6579 72.8117 23.7829 85.9679 37.0017 91.2804C42.0485 89.1805 46.3106 85.5523 49.1892 80.9054V80.8742Z" fill="#FFC400"/>
<path d="M49.1893 80.8743C51.6254 76.9736 52.994 72.5015 53.158 67.9055C53.5955 55.343 45.158 44.5618 33.4705 41.5305C33.4705 41.9993 33.408 42.4993 33.408 42.968C33.1466 50.0464 34.422 57.0973 37.1463 63.6357C39.8706 70.174 43.9792 76.0445 49.1893 80.843V80.8743Z" fill="#FF9100"/>
<path d="M51.8449 6.25024C45.1886 11.5627 39.9386 18.594 36.7511 26.6877C34.8879 31.4336 33.7806 36.4424 33.4698 41.5315C39.2641 43.0292 44.3736 46.4597 47.9534 51.2556C51.5333 56.0515 53.3691 61.9256 53.1574 67.9065C53.0126 72.5056 51.6425 76.9827 49.1886 80.8752C53.6794 85.0311 58.9035 88.3161 64.5949 90.5627C76.1574 85.219 84.3449 73.7502 84.8136 60.1565C85.1261 51.344 81.7511 43.5002 76.9698 36.8752C71.9073 29.8752 51.8449 6.28149 51.8449 6.28149V6.25024Z" fill="#DD2C00"/>
</svg>
