<svg width="100" height="100" viewBox="0 0 100 100" fill="none" xmlns="http://www.w3.org/2000/svg">
<g clip-path="url(#clip0_32_1329)">
<path d="M20.8328 0C9.35156 0 0 9.35156 0 20.8328C0 30.8875 7.17266 39.3102 16.6672 41.2469V70.8328C16.6672 80.0281 24.2297 87.5 33.3328 87.5H33.4852C34.5023 94.5492 40.5945 100 47.9172 100C55.9469 100 62.5 93.4469 62.5 85.4172C62.5 77.3875 55.9469 70.8328 47.9172 70.8328C40.5953 70.8328 34.5031 76.2836 33.4852 83.3328H33.3328C26.507 83.3328 20.8328 77.7453 20.8328 70.8328V49.8273C22.1807 51.2035 23.7902 52.2964 25.5665 53.0417C27.3428 53.787 29.2502 54.1696 31.1766 54.1672H33.4852C34.5031 61.2164 40.5945 66.6672 47.9172 66.6672C55.2398 66.6672 61.3305 61.2164 62.3469 54.1672H70.9852C72.0031 61.2164 78.0945 66.6672 85.4172 66.6672C93.4469 66.6672 100 60.1125 100 52.0828C100 44.0531 93.4469 37.5 85.4172 37.5C78.0945 37.5 72.0023 42.9508 70.9852 50H62.3477C61.3313 42.9508 55.2398 37.5 47.9172 37.5C40.5945 37.5 34.5023 42.9508 33.4852 50H31.1766C26.1508 50 21.9633 46.4148 21.0297 41.6625C32.4203 41.5562 41.6672 32.2484 41.6672 20.8328C41.6672 9.35156 32.3141 0 20.8328 0ZM20.8328 4.16719C23.0227 4.16266 25.192 4.59062 27.2161 5.42653C29.2402 6.26243 31.0793 7.48981 32.6278 9.03824C34.1764 10.5867 35.404 12.4257 36.2401 14.4497C37.0762 16.4737 37.5043 18.6429 37.5 20.8328C37.5041 23.0227 37.0758 25.1919 36.2397 27.2159C35.4035 29.24 34.176 31.079 32.6275 32.6275C31.079 34.176 29.24 35.4035 27.2159 36.2397C25.1919 37.0758 23.0227 37.5041 20.8328 37.5C18.6429 37.5043 16.4737 37.0762 14.4497 36.2401C12.4257 35.404 10.5867 34.1764 9.03824 32.6278C7.48981 31.0793 6.26243 29.2402 5.42653 27.2161C4.59062 25.192 4.16266 23.0227 4.16719 20.8328C4.16286 18.643 4.59098 16.474 5.42698 14.45C6.26297 12.4261 7.49039 10.5872 9.03879 9.03879C10.5872 7.49039 12.4261 6.26297 14.45 5.42698C16.474 4.59098 18.643 4.16286 20.8328 4.16719ZM16.7586 10.0586C14.5859 10.0695 12.5 11.8148 12.5 14.1922V27.507C12.5 30.6656 16.1789 32.7125 18.8633 31.0484L29.5148 24.443C32.0594 22.8648 32.0727 18.9727 29.5398 17.3766L18.8875 10.6656C18.2512 10.2622 17.5119 10.0514 16.7586 10.0586ZM16.6672 14.1922L27.3195 20.9016L16.6672 27.507V14.1922ZM47.9172 41.6672C49.2862 41.6629 50.6426 41.9293 51.9082 42.4512C53.1738 42.9731 54.3238 43.7401 55.2918 44.7082C56.2599 45.6762 57.0269 46.8262 57.5488 48.0918C58.0707 49.3574 58.3371 50.7138 58.3328 52.0828C58.337 53.4519 58.0705 54.8083 57.5486 56.0739C57.0267 57.3396 56.2597 58.4896 55.2917 59.4578C54.3237 60.4259 53.1738 61.1931 51.9082 61.7152C50.6426 62.2373 49.2862 62.504 47.9172 62.5C46.548 62.5041 45.1916 62.2375 43.9258 61.7154C42.6601 61.1934 41.5101 60.4262 40.5419 59.4581C39.5738 58.4899 38.8066 57.3399 38.2846 56.0742C37.7625 54.8084 37.4959 53.452 37.5 52.0828C37.496 50.7138 37.7627 49.3574 38.2848 48.0918C38.8069 46.8262 39.5741 45.6763 40.5422 44.7083C41.5104 43.7403 42.6604 42.9733 43.9261 42.4514C45.1917 41.9295 46.5481 41.663 47.9172 41.6672ZM85.4172 41.6672C86.7862 41.6629 88.1426 41.9293 89.4082 42.4512C90.6738 42.9731 91.8238 43.7401 92.7918 44.7082C93.7599 45.6762 94.5269 46.8262 95.0488 48.0918C95.5707 49.3574 95.8371 50.7138 95.8328 52.0828C95.837 53.4519 95.5705 54.8083 95.0486 56.0739C94.5267 57.3396 93.7597 58.4896 92.7917 59.4578C91.8237 60.4259 90.6738 61.1931 89.4082 61.7152C88.1426 62.2373 86.7862 62.504 85.4172 62.5C84.048 62.5041 82.6916 62.2375 81.4258 61.7154C80.1601 61.1934 79.0101 60.4262 78.0419 59.4581C77.0738 58.4899 76.3066 57.3399 75.7846 56.0742C75.2625 54.8084 74.9959 53.452 75 52.0828C74.996 50.7138 75.2627 49.3574 75.7848 48.0918C76.3069 46.8262 77.0741 45.6763 78.0422 44.7083C79.0104 43.7403 80.1604 42.9733 81.4261 42.4514C82.6917 41.9295 84.0481 41.663 85.4172 41.6672ZM52.1609 47.0977C51.6082 47.0974 51.078 47.3166 50.6867 47.707L45.7648 52.6242L44.1297 50.9961C43.7383 50.6061 43.2081 50.3876 42.6557 50.3884C42.1032 50.3893 41.5737 50.6096 41.1836 51.0008C40.9905 51.1947 40.8375 51.4247 40.7333 51.6777C40.6291 51.9308 40.5758 52.2019 40.5763 52.4755C40.5769 52.7492 40.6314 53.02 40.7367 53.2726C40.8419 53.5252 40.9959 53.7546 41.1898 53.9477L44.2945 57.0414C44.6852 57.4307 45.2143 57.6492 45.7658 57.6491C46.3173 57.6489 46.8463 57.4301 47.2367 57.0406L53.6313 50.6547C53.8249 50.4613 53.9785 50.2317 54.0834 49.9789C54.1882 49.7262 54.2423 49.4552 54.2424 49.1816C54.2426 48.9079 54.1888 48.6369 54.0842 48.3841C53.9796 48.1312 53.8262 47.9014 53.6328 47.7078C53.2421 47.318 52.7129 47.0981 52.1609 47.0977ZM89.6609 47.0977C89.1082 47.0974 88.578 47.3166 88.1867 47.707L83.2648 52.6242L81.6297 50.9961C81.2383 50.6061 80.7081 50.3876 80.1557 50.3884C79.6032 50.3893 79.0737 50.6096 78.6836 51.0008C78.4905 51.1947 78.3375 51.4247 78.2333 51.6777C78.1291 51.9308 78.0758 52.2019 78.0763 52.4755C78.0769 52.7492 78.1314 53.02 78.2367 53.2726C78.3419 53.5252 78.4959 53.7546 78.6898 53.9477L81.7945 57.0414C82.1852 57.4307 82.7143 57.6492 83.2658 57.6491C83.8173 57.6489 84.3463 57.4301 84.7367 57.0406L91.1313 50.6547C91.3249 50.4613 91.4785 50.2317 91.5834 49.9789C91.6882 49.7262 91.7423 49.4552 91.7424 49.1816C91.7426 48.9079 91.6888 48.6369 91.5842 48.3841C91.4796 48.1312 91.3262 47.9014 91.1328 47.7078C90.7421 47.318 90.2129 47.0981 89.6609 47.0977ZM47.9172 75C49.2862 74.996 50.6426 75.2627 51.9082 75.7848C53.1738 76.3069 54.3237 77.0741 55.2917 78.0422C56.2597 79.0104 57.0267 80.1604 57.5486 81.4261C58.0705 82.6917 58.337 84.0481 58.3328 85.4172C58.3371 86.7862 58.0707 88.1426 57.5488 89.4082C57.0269 90.6738 56.2599 91.8238 55.2918 92.7918C54.3238 93.7599 53.1738 94.5269 51.9082 95.0488C50.6426 95.5707 49.2862 95.8371 47.9172 95.8328C46.5481 95.837 45.1917 95.5705 43.9261 95.0486C42.6604 94.5267 41.5104 93.7597 40.5422 92.7917C39.5741 91.8237 38.8069 90.6738 38.2848 89.4082C37.7627 88.1426 37.496 86.7862 37.5 85.4172C37.4959 84.048 37.7625 82.6916 38.2846 81.4258C38.8066 80.1601 39.5738 79.0101 40.5419 78.0419C41.5101 77.0738 42.6601 76.3066 43.9258 75.7846C45.1916 75.2625 46.548 74.9959 47.9172 75ZM43.75 82.2922C42.0367 82.2922 40.625 83.7039 40.625 85.4172C40.625 87.132 42.0375 88.5422 43.75 88.5422C45.4625 88.5422 46.875 87.132 46.875 85.4172C46.875 83.7039 45.4633 82.2922 43.75 82.2922ZM52.0828 82.2922C50.3695 82.2922 48.9578 83.7039 48.9578 85.4172C48.9578 87.132 50.3703 88.5422 52.0828 88.5422C53.7953 88.5422 55.2078 87.132 55.2078 85.4172C55.2078 83.7039 53.7961 82.2922 52.0828 82.2922ZM43.75 84.375C44.3359 84.375 44.7922 84.832 44.7922 85.4172C44.7922 86.0055 44.3367 86.4578 43.75 86.4578C43.1641 86.4578 42.7078 86.0047 42.7078 85.4172C42.7078 84.8312 43.1648 84.375 43.75 84.375ZM52.0828 84.375C52.6688 84.375 53.125 84.832 53.125 85.4172C53.125 86.0055 52.6695 86.4578 52.0828 86.4578C51.4969 86.4578 51.0422 86.0047 51.0422 85.4172C51.0422 84.8312 51.4977 84.375 52.0828 84.375Z" fill="#2088FF"/>
<path d="M85.4167 70.8323C78.0863 70.8323 71.9886 76.2956 70.9816 83.3565C70.9127 83.3506 70.8436 83.3477 70.7745 83.3479L68.6652 83.4182C68.1131 83.4364 67.5909 83.6729 67.2133 84.0759C66.8356 84.4789 66.6334 85.0154 66.6511 85.5674C66.6692 86.1196 66.9059 86.6419 67.3091 87.0196C67.7123 87.3973 68.2489 87.5994 68.8011 87.5815L70.9105 87.5135L70.9862 87.5088C72.0073 94.5534 78.0972 99.9995 85.4167 99.9995C93.4464 99.9995 99.9995 93.4463 99.9995 85.4166C99.9995 77.387 93.4464 70.8323 85.4167 70.8323ZM85.4167 74.9995C86.7858 74.9954 88.1421 75.2622 89.4077 75.7843C90.6733 76.3064 91.8232 77.0736 92.7912 78.0417C93.7592 79.0099 94.5262 80.1599 95.0481 81.4255C95.5701 82.6912 95.8366 84.0476 95.8323 85.4166C95.8367 86.7857 95.5702 88.142 95.0483 89.4077C94.5264 90.6733 93.7594 91.8232 92.7913 92.7913C91.8233 93.7593 90.6734 94.5264 89.4077 95.0483C88.1421 95.5702 86.7857 95.8366 85.4167 95.8323C84.0477 95.8365 82.6913 95.57 81.4256 95.0481C80.1599 94.5262 79.0099 93.7591 78.0418 92.7911C77.0736 91.8231 76.3064 90.6733 75.7843 89.4077C75.2622 88.1421 74.9955 86.7857 74.9995 85.4166C74.9954 84.0475 75.262 82.691 75.7841 81.4253C76.3061 80.1596 77.0733 79.0095 78.0415 78.0414C79.0096 77.0732 80.1596 76.3061 81.4254 75.784C82.6911 75.262 84.0476 74.9953 85.4167 74.9995Z" fill="#79B8FF"/>
</g>
<defs>
<clipPath id="clip0_32_1329">
<rect width="100" height="100" fill="white"/>
</clipPath>
</defs>
</svg>
