<svg width="100" height="100" viewBox="0 0 100 100" fill="none" xmlns="http://www.w3.org/2000/svg">
<g clip-path="url(#clip0_32_1325)">
<path d="M40.9583 31.625C44.3625 31.6458 46.9458 32.6167 48.6333 34.5083C50.2292 36.3042 50.9958 38.9 50.9125 42.2167L50.8542 42.4708C50.8013 42.5898 50.7147 42.6907 50.6051 42.7611C50.4955 42.8314 50.3677 42.8681 50.2375 42.8667H43.325C43.1083 42.8657 42.9004 42.7802 42.7456 42.6286C42.5908 42.4769 42.5012 42.2708 42.4958 42.0542C42.5014 40.2931 41.9597 39.3069 40.8708 39.0958L40.3708 39.05C38.9458 39.05 38.0208 39.9292 37.9958 41.4625C37.9667 43.1708 38.9333 44.725 41.6833 47.3917C45.3 50.7917 46.7542 53.8042 46.6833 57.7792C46.5708 64.2125 42.1958 68.375 35.5458 68.375C32.15 68.375 29.5542 67.4625 27.825 65.6708C26.075 63.85 25.275 61.1792 25.4417 57.7292C25.4495 57.5537 25.5223 57.3874 25.6458 57.2625C25.7709 57.1415 25.9384 57.0742 26.1125 57.075H33.2625C33.3618 57.0813 33.4592 57.1053 33.55 57.1458C33.7142 57.2315 33.8384 57.3781 33.8958 57.5542C33.918 57.6375 33.9208 57.7208 33.9042 57.8042C33.825 59.0458 34.0458 59.975 34.5333 60.4917C34.7003 60.664 34.9025 60.7983 35.1261 60.8853C35.3498 60.9724 35.5896 61.01 35.8292 60.9958C37.15 60.9958 37.925 60.0583 37.9542 58.4333C37.9792 57.0292 37.5292 55.7917 35.1125 53.3C31.9833 50.2417 29.1792 47.0833 29.2667 42.1167C29.2773 40.7264 29.5685 39.3526 30.1226 38.0775C30.6768 36.8024 31.4825 35.6522 32.4917 34.6958C34.6333 32.6875 37.5583 31.625 40.9583 31.625ZM16.8625 31.7417C19.975 31.7167 22.4208 32.675 24.1208 34.5958C25.9208 36.625 26.8333 39.6833 26.8375 43.6875C26.8353 43.8636 26.7635 44.0317 26.6378 44.155C26.5121 44.2783 26.3428 44.3469 26.1667 44.3458H18.6625C18.5315 44.3398 18.4072 44.2865 18.3125 44.1958C18.2224 44.0995 18.1705 43.9735 18.1667 43.8417C18.1083 41.2458 17.3833 39.9 15.95 39.7417L15.6542 39.725C12.7792 39.7292 11.0833 43.6333 10.1833 45.8C8.91076 48.8315 8.3054 52.1013 8.40832 55.3875C8.47082 56.9125 8.71666 59.0542 10.1583 59.9417C11.4417 60.7292 13.2708 60.2083 14.3792 59.3333C15.4833 58.4625 16.375 56.9542 16.75 55.5792C16.8055 55.3847 16.8069 55.2486 16.7542 55.1708C16.7264 55.1403 16.6819 55.1194 16.6208 55.1083L14.5208 55.0917C14.4189 55.0887 14.3187 55.065 14.2263 55.022C14.1339 54.979 14.0512 54.9177 13.9833 54.8417C13.9295 54.7835 13.8934 54.7113 13.8792 54.6333C13.8569 54.5571 13.8569 54.4762 13.8792 54.4L15.1958 48.675C15.2344 48.5261 15.3179 48.3926 15.4349 48.2928C15.5519 48.1929 15.6968 48.1314 15.85 48.1167V48.1042H28.4958L28.5833 48.1083C28.9125 48.15 29.1458 48.4583 29.1417 48.7917V48.8083L27.825 54.5208C27.7542 54.8458 27.4292 55.0833 27.0583 55.0833H25.4708C25.4135 55.0837 25.3578 55.1026 25.312 55.1371C25.2662 55.1716 25.2328 55.22 25.2167 55.275C23.75 60.25 21.7625 63.675 19.1417 65.7292C16.9083 67.4792 14.1625 68.2958 10.4875 68.2958C7.18749 68.2958 4.96249 67.2333 3.07499 65.1375C0.583323 62.3625 -0.445844 57.8292 0.179156 52.3583C1.30416 42.0958 6.62082 31.7417 16.8625 31.7417ZM87.5667 32.2917C95.9417 32.2917 100.125 36.0917 99.9958 43.5875C99.8417 52.3708 94.4917 58.8292 86.4375 60.3208C85.2903 60.5236 84.1333 60.6181 82.9667 60.6042L79.075 60.5875C79.0122 60.5895 78.9525 60.6151 78.9078 60.6591C78.863 60.7031 78.8364 60.7623 78.8333 60.825C78.8333 60.8667 78.8444 60.9069 78.8666 60.9458C78.8926 60.9795 78.9235 61.009 78.9583 61.0333L82.2666 62.7583C82.5389 62.9056 82.6444 63.1333 82.5833 63.4417L81.7208 67.3292C81.65 67.6542 81.3875 67.8417 81.0083 67.8417H73.9125C73.8109 67.839 73.7106 67.8179 73.6166 67.7792C73.5256 67.7334 73.4436 67.6712 73.375 67.5958C73.3234 67.5352 73.287 67.4631 73.2689 67.3855C73.2508 67.308 73.2514 67.2272 73.2708 67.15L81.1708 32.8125C81.25 32.4542 81.5875 32.2958 81.8875 32.2958L87.5667 32.2917ZM71.9708 32.3417C72.0482 32.3764 72.1199 32.4228 72.1833 32.4792C72.2415 32.5436 72.2893 32.6167 72.325 32.6958C72.3525 32.775 72.368 32.8579 72.3708 32.9417L72.325 67.1625C72.3378 67.243 72.3335 67.3254 72.3125 67.4042C72.2884 67.4887 72.2456 67.5667 72.1871 67.6324C72.1287 67.698 72.0562 67.7496 71.975 67.7833C71.8916 67.8222 71.8002 67.8407 71.7083 67.8375H64.1542C63.9815 67.8372 63.8157 67.77 63.6917 67.65C63.6353 67.5866 63.5889 67.5149 63.5542 67.4375C63.5248 67.3572 63.5079 67.2729 63.5042 67.1875L63.6667 63.8667C63.675 63.5042 63.6667 63.4042 63.4542 63.3792L63.1708 63.3708H56.0292C55.5125 63.3708 55.475 63.4167 55.2917 63.8917L53.8083 67.4625C53.675 67.7125 53.4083 67.8375 53.0083 67.8375H45.5292C45.075 67.8375 44.75 67.3875 44.9208 66.9667L60.4125 32.8042C60.5167 32.6 60.675 32.2917 61.0333 32.2917H71.725C71.8083 32.2917 71.8903 32.3083 71.9708 32.3417ZM64.5833 41.6042C64.55 41.4708 64.4417 41.4833 64.3542 41.6583C64.2921 41.7846 64.2365 41.9139 64.1875 42.0458L58.8375 55.3083L58.7708 55.5083C58.7653 55.5361 58.7639 55.5625 58.7667 55.5875L58.7958 55.6583C58.8123 55.6798 58.8337 55.697 58.8583 55.7083C58.8797 55.7219 58.9039 55.7305 58.9292 55.7333L63.3958 55.7917C63.8917 55.75 63.9167 55.725 63.9667 55.2208C63.975 55.0417 64.6083 41.7583 64.5833 41.6042ZM83.8 39.925C83.7375 39.927 83.6781 39.9522 83.6333 39.9958C83.5882 40.0399 83.5614 40.0995 83.5583 40.1625C83.559 40.2057 83.5709 40.248 83.5928 40.2852C83.6147 40.3225 83.6459 40.3534 83.6833 40.375L87.1917 42.2292C87.3667 42.325 87.3708 42.4917 87.3125 42.7792C87.2833 42.9083 85.0625 52.675 85.0667 52.6833C85.0792 52.6958 85.1458 52.7292 85.4791 52.7292H85.6292C89.3583 52.5792 91.3916 48.1708 91.4666 43.8917C91.5041 41.5792 90.7167 40.1583 89.2875 39.95L88.9916 39.925H83.8Z" fill="#757575"/>
</g>
<defs>
<clipPath id="clip0_32_1325">
<rect width="100" height="100" fill="white"/>
</clipPath>
</defs>
</svg>
