<svg width="100" height="100" viewBox="0 0 100 100" fill="none" xmlns="http://www.w3.org/2000/svg">
<path d="M1.10059 1.1001H98.9006V98.9009H1.10059V1.1001Z" fill="#F0DB4F"/>
<path d="M90.8951 75.5753C90.1787 71.1136 87.2693 67.3659 78.6514 63.8714C75.6576 62.4956 72.3201 61.5105 71.3256 59.2417C70.9725 57.9214 70.9256 57.1776 71.149 56.3784C71.7904 53.7847 74.8865 52.9761 77.3404 53.7198C78.9209 54.2495 80.417 55.4675 81.3193 57.4105C85.5397 54.6776 85.5311 54.6956 88.4779 52.8175C87.399 51.1448 86.8233 50.373 86.117 49.6573C83.5787 46.8222 80.1201 45.362 74.5889 45.4737L71.7076 45.8464C68.9467 46.544 66.3154 47.9933 64.7725 49.9362C60.1428 55.1894 61.4631 64.3831 67.0967 68.1667C72.6467 72.3323 80.7998 73.28 81.8412 77.1753C82.8545 81.944 78.3365 83.4878 73.8459 82.9394C70.5365 82.2511 68.6959 80.569 66.7061 77.5105C63.0436 79.63 63.0436 79.63 59.2779 81.7956C60.1709 83.748 61.1092 84.6315 62.6061 86.323C69.6904 93.5089 87.4186 93.1558 90.5982 82.2792C90.7272 81.9058 91.5834 79.4151 90.8951 75.5753ZM54.2662 46.0495H45.1186L45.0811 69.6995C45.0811 74.7292 45.3412 79.3401 44.5232 80.7534C43.185 83.5331 39.717 83.1886 38.1365 82.6495C36.5279 81.8589 35.71 80.7347 34.7623 79.1456C34.5021 78.6894 34.3068 78.3362 34.2412 78.3089L26.8037 82.8636C28.0404 85.4019 29.8623 87.605 32.1959 89.0362C35.6818 91.1284 40.367 91.7698 45.267 90.6448C48.4561 89.7159 51.2076 87.7917 52.6482 84.8628C54.7311 81.023 54.2842 76.3753 54.2654 71.2347C54.3123 62.848 54.2662 54.4628 54.2662 46.0495Z" fill="#323330"/>
</svg>
