<svg width="100" height="100" viewBox="0 0 100 100" fill="none" xmlns="http://www.w3.org/2000/svg">
<g clip-path="url(#clip0_55_1338)">
<path d="M36.8665 77.3041C36.8665 77.3041 33.0521 79.5224 39.5813 80.2729C47.4914 81.1752 51.5339 81.0461 60.2509 79.3961C60.2509 79.3961 62.5428 80.833 65.7431 82.0778C46.2024 90.4527 21.518 81.5926 36.8665 77.3041ZM34.4787 66.3752C34.4787 66.3752 30.2003 69.5423 36.7344 70.218C45.1842 71.0897 51.857 71.1611 63.4038 68.9377C63.4038 68.9377 65.0009 70.5567 67.5122 71.4423C43.8859 78.351 17.5706 71.9871 34.4787 66.3752Z" fill="#5382A1"/>
<path d="M54.6087 47.8367C59.4237 53.38 53.3437 58.3685 53.3437 58.3685C53.3437 58.3685 65.5694 52.0572 59.9547 44.1537C54.7107 36.7838 50.6891 33.1214 72.4599 20.4954C72.4599 20.4954 38.287 29.0303 54.6087 47.8367Z" fill="#E76F00"/>
<path d="M80.4529 85.3881C80.4529 85.3881 83.2757 87.7138 77.3439 89.5132C66.0647 92.9303 30.3983 93.9621 20.4902 89.6494C16.9286 88.1002 23.6078 85.9499 25.7087 85.4985C27.8997 85.0234 29.152 85.1121 29.152 85.1121C25.191 82.3216 3.55 90.591 18.1595 92.9589C58.0014 99.4202 90.7873 90.0497 80.4529 85.3881ZM38.7003 55.0523C38.7003 55.0523 20.5584 59.3615 32.276 60.926C37.2234 61.5884 47.0861 61.4387 56.2731 60.6687C63.7812 60.0358 71.3202 58.689 71.3202 58.689C71.3202 58.689 68.6728 59.8228 66.7575 61.1306C48.3344 65.976 12.7442 63.7219 22.9902 58.7656C31.6552 54.5771 38.7003 55.0523 38.7003 55.0523ZM71.2454 73.2436C89.9737 63.5118 81.3144 54.1598 75.2705 55.4199C73.789 55.728 73.1286 55.995 73.1286 55.995C73.1286 55.995 73.6786 55.1338 74.7289 54.7609C86.6855 50.5572 95.8812 67.1589 70.8691 73.7341C70.8691 73.7343 71.159 73.4754 71.2454 73.2436Z" fill="#5382A1"/>
<path d="M59.9542 0.107711C59.9542 0.107711 70.3261 10.4834 50.1169 26.4375C33.9114 39.2357 46.4215 46.5329 50.1103 54.8701C40.6507 46.3355 33.7085 38.8222 38.366 31.8297C45.2016 21.5646 64.1389 16.5883 59.9542 0.107711Z" fill="#E76F00"/>
<path d="M40.5399 99.6145C58.5165 100.765 86.1214 98.976 86.7752 90.47C86.7752 90.47 85.5185 93.6948 71.9185 96.2555C56.5752 99.1428 37.6515 98.8058 26.4275 96.9552C26.4278 96.9552 28.7249 98.857 40.5399 99.6145Z" fill="#5382A1"/>
</g>
<defs>
<clipPath id="clip0_55_1338">
<rect width="74" height="100" fill="white" transform="translate(13)"/>
</clipPath>
</defs>
</svg>
