<svg width="100%" height="100%" viewBox="0 0 100 100" fill="none" xmlns="http://www.w3.org/2000/svg">
<path d="M49.6572 33.9041C71.408 33.9041 89.0408 41.1104 89.041 49.9998C89.041 58.8893 71.4082 66.0955 49.6572 66.0955C27.9064 66.0955 10.2744 58.8893 10.2744 49.9998C10.2747 41.1104 27.9066 33.9042 49.6572 33.9041ZM66.5186 40.7537C65.2257 40.7537 64.1958 40.9398 63.4287 41.3123C62.6616 41.663 62.1129 42.2332 61.7842 43.0223C61.4775 43.7893 61.3242 44.7864 61.3242 46.0135C61.3242 47.0215 61.4558 47.8654 61.7188 48.5447C61.9817 49.2241 62.3764 49.7832 62.9023 50.2215C63.4284 50.6599 64.0531 51.0441 64.7764 51.3729C65.6529 51.7235 66.3652 52.0411 66.9131 52.326C67.4828 52.5889 67.8991 52.9396 68.1621 53.3777C68.4251 53.8161 68.5566 54.4738 68.5566 55.3504C68.5566 56.534 68.3594 57.3456 67.9648 57.784C67.5923 58.2001 67.0884 58.408 66.4531 58.408C66.0586 58.408 65.7072 58.3207 65.4004 58.1453C65.0938 57.9481 64.853 57.5973 64.6777 57.0936C64.5024 56.5895 64.415 55.8764 64.415 54.9559V53.575H61.1924V54.6932C61.1924 56.2053 61.3897 57.3779 61.7842 58.2108C62.2006 59.0436 62.8038 59.6242 63.5928 59.9529C64.3817 60.2817 65.3129 60.4461 66.3867 60.4461C67.5045 60.4461 68.4693 60.2714 69.2803 59.9207C70.1131 59.57 70.7491 58.9998 71.1875 58.2108C71.6476 57.3999 71.8779 56.3041 71.8779 54.9236C71.8779 53.7182 71.7351 52.7863 71.4502 52.1287C71.1653 51.4713 70.7161 50.9451 70.1025 50.5506C69.4888 50.1561 68.6884 49.7728 67.7021 49.4002C67.1761 49.2029 66.6613 48.9831 66.1572 48.742C65.675 48.5009 65.2805 48.1721 64.9736 47.7557C64.6669 47.3173 64.5137 46.7037 64.5137 45.9149C64.5137 44.9945 64.6669 44.3264 64.9736 43.91C65.3024 43.4716 65.8285 43.2518 66.5518 43.2518C67.2528 43.2518 67.7566 43.4822 68.0635 43.9422C68.3922 44.3805 68.5566 45.104 68.5566 46.1121V47.4608H71.6475V45.1922C71.6475 43.7456 71.2087 42.6493 70.332 41.9041C69.4553 41.1371 68.1842 40.7537 66.5186 40.7537ZM28.082 40.7859V60.2166H31.2051V40.7859H28.082ZM35.6113 40.7859L31.501 50.1229L35.71 60.2166H39.1621L34.5918 50.1229L38.9971 40.7859H35.6113ZM43.7471 40.7859V60.2166H46.8711V40.7859H43.7471ZM52.7988 40.7859V60.2166H55.9219V40.7859H52.7988Z" fill="#06365C"/>
<path d="M87.917 62.6714C87.1112 62.9359 86.2776 63.1657 85.4199 63.357H72.8008C71.9434 63.1657 71.1102 62.9358 70.3047 62.6714H87.917ZM91.248 61.3013C90.7659 61.5444 90.2683 61.7729 89.7568 61.9869H68.4648C67.9533 61.7729 67.4558 61.5444 66.9736 61.3013H91.248ZM93.5869 59.9312C93.2368 60.1685 92.8748 60.397 92.502 60.6168H65.7188C65.591 60.5415 65.4649 60.4646 65.3398 60.3873C65.6724 60.4254 66.0212 60.4468 66.3867 60.4468C67.4922 60.4468 68.4476 60.2742 69.2529 59.9312H93.5869ZM95.3672 58.5621C95.0991 58.796 94.8218 59.0248 94.5342 59.2466H70.3613C70.5881 59.0462 70.7886 58.8176 70.9658 58.5621H95.3672ZM68.3037 57.192C68.2143 57.4339 68.1018 57.6316 67.9648 57.7838C67.9352 57.8168 67.9033 57.8471 67.8721 57.8775H65.0996C64.949 57.7004 64.8214 57.4718 64.7148 57.192H68.3037ZM96.7637 57.192C96.5539 57.4251 96.3349 57.6535 96.1074 57.8775H71.3555C71.4513 57.6653 71.5341 57.4369 71.6035 57.192H96.7637ZM61.2354 55.8218C61.2541 56.0614 61.281 56.2897 61.3125 56.5074H60.8779C60.699 56.2825 60.5286 56.0538 60.3662 55.8218H61.2354ZM68.5449 55.8218C68.5323 56.0701 68.509 56.2985 68.4756 56.5074H64.5303C64.4931 56.3003 64.4644 56.0718 64.4453 55.8218H68.5449ZM97.8545 55.8218C97.6921 56.0538 97.5217 56.2825 97.3428 56.5074H71.7539C71.7907 56.2892 71.8198 56.0608 71.8398 55.8218H97.8545ZM61.1924 54.6929C61.1924 54.8444 61.1962 54.9926 61.2002 55.1373H59.917C59.7791 54.9117 59.6495 54.683 59.5273 54.4517H61.1924V54.6929ZM68.501 54.4517C68.5302 54.6612 68.5463 54.8898 68.5527 55.1373H64.417C64.4162 55.078 64.415 55.0177 64.415 54.9566V54.4517H68.501ZM98.6934 54.4517C98.5712 54.683 98.4416 54.9117 98.3037 55.1373H71.873C71.8743 55.0667 71.8779 54.9955 71.8779 54.9234C71.8779 54.7612 71.8743 54.604 71.8691 54.4517H98.6934ZM67.9492 53.0826C68.0286 53.1764 68.0999 53.2748 68.1621 53.3785C68.2308 53.493 68.2901 53.6226 68.3408 53.7672H64.415V53.5757H61.1924V53.7672H59.1934C59.0918 53.5412 58.9974 53.3131 58.9111 53.0826H67.9492ZM99.3096 53.0826C99.2233 53.3131 99.1289 53.5412 99.0273 53.7672H71.8242C71.8004 53.5231 71.7688 53.295 71.7285 53.0826H99.3096ZM65.5957 51.7125C66.1079 51.9319 66.5474 52.1356 66.9131 52.3257C66.9629 52.3487 67.0111 52.3737 67.0586 52.398H58.6797C58.6112 52.1714 58.5506 51.9428 58.4971 51.7125H65.5957ZM99.7236 51.7125C99.6701 51.9428 99.6095 52.1714 99.541 52.398H71.5537C71.5216 52.3037 71.4871 52.2136 71.4502 52.1285C71.3872 51.9831 71.3145 51.845 71.2354 51.7125H99.7236ZM63.0527 50.3423C63.3664 50.589 63.7126 50.8176 64.0918 51.0279H58.3613C58.324 50.8009 58.294 50.5724 58.2715 50.3423H63.0527ZM99.9502 50.3423C99.9277 50.5724 99.8967 50.8008 99.8594 51.0279H70.6992C70.5212 50.8522 70.323 50.6921 70.1025 50.5504C69.9937 50.4804 69.8784 50.4116 69.7578 50.3423H99.9502ZM61.9111 48.9722C62.0375 49.2194 62.1834 49.4481 62.3506 49.6578H58.2256C58.2219 49.5438 58.2197 49.4296 58.2197 49.315C58.2197 49.2004 58.2219 49.0862 58.2256 48.9722H61.9111ZM100.001 49.315C100.001 49.4296 99.9988 49.5438 99.9951 49.6578H68.3486C68.1428 49.5715 67.9274 49.4851 67.7021 49.4C67.3491 49.2676 67.0014 49.1244 66.6582 48.9722H99.9951C99.9988 49.0862 100.001 49.2004 100.001 49.315ZM61.459 47.6031C61.5043 47.8457 61.5595 48.074 61.6279 48.2877H58.2715C58.2939 48.0579 58.3241 47.8298 58.3613 47.6031H61.459ZM99.8594 47.6031C99.8966 47.8298 99.9277 48.0579 99.9502 48.2877H65.4678C65.2836 48.13 65.1187 47.9532 64.9736 47.7564C64.9396 47.7077 64.9082 47.6561 64.8779 47.6031H99.8594ZM61.3281 46.233C61.3328 46.4712 61.3452 46.6996 61.3652 46.9185H58.4971C58.5506 46.6882 58.6112 46.4596 58.6797 46.233H61.3281ZM68.5566 46.9185H64.6182C64.5694 46.7096 64.5367 46.4813 64.5225 46.233H68.5566V46.9185ZM99.541 46.233C99.6095 46.4596 99.6701 46.6882 99.7236 46.9185H71.6475V46.233H99.541ZM61.377 44.8629C61.3561 45.0818 61.3401 45.3103 61.332 45.5484H58.9111C58.9975 45.3176 59.0917 45.0891 59.1934 44.8629H61.377ZM68.4424 44.8629C68.4864 45.0691 68.517 45.2974 68.5352 45.5484H64.5225C64.5349 45.2979 64.5625 45.0697 64.6016 44.8629H68.4424ZM99.0273 44.8629C99.129 45.0891 99.2232 45.3176 99.3096 45.5484H71.6475V45.192C71.6475 45.0802 71.6439 44.9704 71.6387 44.8629H99.0273ZM61.626 43.4927C61.564 43.7069 61.5115 43.9353 61.4688 44.1783H59.5273C59.6495 43.947 59.7791 43.7183 59.917 43.4927H61.626ZM67.582 43.4927C67.7758 43.6043 67.9369 43.7531 68.0635 43.9429C68.1165 44.0137 68.1635 44.0927 68.208 44.1783H64.8164C64.864 44.0799 64.9148 43.9896 64.9736 43.9097C65.1043 43.7355 65.267 43.5977 65.46 43.4927H67.582ZM98.3037 43.4927C98.4416 43.7183 98.5712 43.947 98.6934 44.1783H71.5664C71.5251 43.9371 71.4673 43.7087 71.3945 43.4927H98.3037ZM62.3369 42.1236C62.161 42.3271 62.0092 42.5542 61.8838 42.8082H60.3662C60.5283 42.5766 60.6984 42.3481 60.877 42.1236H62.3369ZM97.3438 42.1236C97.5224 42.3481 97.6924 42.5766 97.8545 42.8082H71.0859C70.9407 42.5572 70.7672 42.3294 70.5654 42.1236H97.3438ZM96.1084 40.7535C96.3359 40.9775 96.5549 41.2059 96.7646 41.439H69.668C68.8526 40.9828 67.8032 40.7535 66.5186 40.7535C65.2257 40.7535 64.1958 40.9396 63.4287 41.3121C63.3427 41.3514 63.2592 41.3942 63.1787 41.439H61.4561C61.6658 41.2059 61.8848 40.9775 62.1123 40.7535H96.1084ZM94.5342 39.3834C94.8223 39.6056 95.1005 39.8345 95.3691 40.0689H62.8516C63.1204 39.8343 63.3991 39.6057 63.6875 39.3834H94.5342ZM92.502 38.0132C92.8746 38.2329 93.236 38.4617 93.5859 38.6988H64.6348C64.9847 38.4617 65.3461 38.2329 65.7188 38.0132H92.502ZM89.7588 36.6441C90.2696 36.8579 90.7665 37.086 91.248 37.3287H66.9736C67.4552 37.086 67.9521 36.8578 68.4629 36.6441H89.7588ZM85.4209 35.274C86.2786 35.4654 87.1121 35.695 87.918 35.9595H70.3027C71.1086 35.695 71.9421 35.4654 72.7998 35.274H85.4209Z" fill="#06365C"/>
<path d="M29.6963 62.6714C28.8907 62.9358 28.0576 63.1657 27.2002 63.357H14.5811C13.7234 63.1657 12.8898 62.9359 12.084 62.6714H29.6963ZM33.0273 61.3013C32.5452 61.5444 32.0476 61.7729 31.5361 61.9869H10.2441C9.73265 61.7729 9.23508 61.5444 8.75293 61.3013H33.0273ZM35.3672 59.9312C35.0171 60.1685 34.6551 60.397 34.2822 60.6168H7.49902C7.12615 60.397 6.76419 60.1685 6.41406 59.9312H28.082V60.2164H31.2051V59.9312H35.3672ZM28.082 59.2466H5.4668C5.17922 59.0248 4.90191 58.796 4.63379 58.5621H28.082V59.2466ZM35.3057 59.2466H31.2051V58.5621H35.0205L35.3057 59.2466ZM28.082 57.8775H3.89355C3.66606 57.6535 3.44707 57.4251 3.2373 57.192H28.082V57.8775ZM34.7344 57.8775H31.2051V57.192H34.4482L34.7344 57.8775ZM38.543 57.192C38.3794 57.3737 38.2095 57.5519 38.0352 57.7281L37.793 57.192H38.543ZM28.082 56.5074H2.6582C2.47917 56.2824 2.30798 56.054 2.14551 55.8218H28.082V56.5074ZM34.1631 56.5074H31.2051V55.8218H33.877L34.1631 56.5074ZM39.6348 55.8218C39.4723 56.054 39.3011 56.2824 39.1221 56.5074H37.4824L37.1719 55.8218H39.6348ZM28.082 55.1373H1.69727C1.55936 54.9117 1.42974 54.683 1.30762 54.4517H28.082V55.1373ZM33.5918 55.1373H31.2051V54.4517H33.3057L33.5918 55.1373ZM40.4736 54.4517C40.3514 54.6831 40.221 54.9115 40.083 55.1373H36.8623L36.5518 54.4517H40.4736ZM28.082 53.7672H0.973633C0.872023 53.5411 0.776771 53.3132 0.69043 53.0826H28.082V53.7672ZM33.0205 53.7672H31.2051V53.0826H32.7354L33.0205 53.7672ZM41.0898 53.0826C41.0035 53.3131 40.9092 53.5412 40.8076 53.7672H36.2422L35.9316 53.0826H41.0898ZM28.082 52.398H0.459961C0.391449 52.1713 0.329892 51.9429 0.276367 51.7125H28.082V52.398ZM32.4492 52.398H31.2051V51.7125H32.1641L32.4492 52.398ZM41.5039 51.7125C41.4504 51.9428 41.3898 52.1714 41.3213 52.398H35.6221L35.3115 51.7125H41.5039ZM28.082 51.0279H0.141602C0.104285 50.8008 0.0732739 50.5724 0.0507812 50.3423H28.082V51.0279ZM31.8779 51.0279H31.2051V50.3423H31.5918L31.8779 51.0279ZM41.7295 50.3423C41.707 50.5724 41.677 50.8009 41.6396 51.0279H35.001L34.6904 50.3423H41.7295ZM28.082 49.6578H0.00585938C0.00216861 49.5439 0 49.4296 0 49.315C7.14564e-07 49.2004 0.00216647 49.0862 0.00585938 48.9722H28.082V49.6578ZM31.7061 49.6578H31.2051V48.9722H32.0078L31.7061 49.6578ZM41.7812 49.315C41.7812 49.4295 41.7791 49.5439 41.7754 49.6578H34.8115L35.1348 48.9722H41.7754C41.7791 49.0862 41.7812 49.2004 41.7812 49.315ZM28.082 48.2877H0.0507812C0.0732453 48.0579 0.104355 47.8298 0.141602 47.6031H28.082V48.2877ZM32.3096 48.2877H31.2051V47.6031H32.6104L32.3096 48.2877ZM41.6396 47.6031C41.6769 47.8298 41.707 48.0579 41.7295 48.2877H35.458L35.7812 47.6031H41.6396ZM28.082 46.9185H0.276367C0.329875 46.6881 0.391465 46.4597 0.459961 46.233H28.082V46.9185ZM32.9121 46.9185H31.2051V46.233H33.2139L32.9121 46.9185ZM41.3213 46.233C41.3898 46.4596 41.4504 46.6882 41.5039 46.9185H36.1035L36.4277 46.233H41.3213ZM28.082 45.5484H0.69043C0.776861 45.3175 0.871895 45.0892 0.973633 44.8629H28.082V45.5484ZM33.5146 45.5484H31.2051V44.8629H33.8164L33.5146 45.5484ZM40.8076 44.8629C40.9093 45.0891 41.0035 45.3176 41.0898 45.5484H36.75L37.0742 44.8629H40.8076ZM28.082 44.1783H1.30762C1.42975 43.947 1.55936 43.7183 1.69727 43.4927H28.082V44.1783ZM34.1182 44.1783H31.2051V43.4927H34.4199L34.1182 44.1783ZM40.083 43.4927C40.221 43.7185 40.3514 43.9469 40.4736 44.1783H37.3965L37.7207 43.4927H40.083ZM28.082 42.8082H2.14648C2.3086 42.5766 2.47862 42.3481 2.65723 42.1236H28.082V42.8082ZM34.7217 42.8082H31.2051V42.1236H35.0225L34.7217 42.8082ZM39.123 42.1236C39.3017 42.3481 39.4717 42.5766 39.6338 42.8082H38.043L38.3662 42.1236H39.123ZM37.9229 40.7867H35.6113L35.3242 41.439H31.2051V40.7867H28.082V41.439H3.23633C3.44608 41.2059 3.6651 40.9775 3.89258 40.7535H37.8887C37.9 40.7646 37.9116 40.7755 37.9229 40.7867ZM36.3135 39.3834C36.6018 39.6057 36.8806 39.8343 37.1494 40.0689H4.63184C4.90045 39.8345 5.17865 39.6056 5.4668 39.3834H36.3135ZM34.2822 38.0132C34.6549 38.2329 35.0163 38.4617 35.3662 38.6988H6.41504C6.76496 38.4617 7.12638 38.2329 7.49902 38.0132H34.2822ZM31.5381 36.6441C32.0489 36.8578 32.5458 37.086 33.0273 37.3287H8.75293C9.23445 37.086 9.7314 36.8579 10.2422 36.6441H31.5381ZM27.2012 35.274C28.0589 35.4654 28.8924 35.695 29.6982 35.9595H12.083C12.8888 35.695 13.7224 35.4653 14.5801 35.274H27.2012Z" fill="#06365C"/>
<path d="M28.5459 36.4044C31.7821 37.3634 34.6022 38.8819 36.7666 40.7862H35.6113L31.501 50.1231L35.6543 60.084C33.6377 61.5911 31.1769 62.801 28.417 63.6036C24.4865 62.1276 15.1952 59.1176 4.47461 58.6417C6.11768 56.2565 7.10054 53.252 7.10059 49.9854C7.10048 46.4817 5.97091 43.2792 4.10742 40.8194C4.13949 40.791 4.17272 40.7636 4.20508 40.7354C14.384 40.6492 23.5638 38.1049 28.5459 36.4044ZM28.082 40.7862V60.2169H31.2051V40.7862H28.082ZM38.2803 42.3047C40.2241 44.5413 41.3465 47.1704 41.3467 49.9854C41.3466 52.8869 40.1551 55.5913 38.0996 57.8712L34.5918 50.1231L38.2803 42.3047Z" fill="#06365C"/>
<path d="M71.0205 36.4004C76.0027 38.1009 85.1826 40.6453 95.3613 40.7314C95.3939 40.7598 95.4267 40.7879 95.459 40.8164C93.5959 43.2761 92.4659 46.4782 92.4658 49.9814C92.4659 53.2482 93.4495 56.2525 95.0928 58.6377C84.3713 59.1135 75.0788 62.1236 71.1484 63.5996C68.5402 62.841 66.1978 61.7201 64.2461 60.3271L63.8955 60.0684C64.6169 60.32 65.4473 60.4462 66.3867 60.4463C67.5045 60.4463 68.4693 60.2706 69.2803 59.9199C70.1131 59.5692 70.7491 58.999 71.1875 58.21C71.6476 57.3991 71.8779 56.3033 71.8779 54.9229C71.8779 53.7174 71.7351 52.7855 71.4502 52.1279C71.1653 51.4705 70.7161 50.9443 70.1025 50.5498C69.4888 50.1553 68.6884 49.772 67.7021 49.3994C67.1762 49.2022 66.6612 48.9832 66.1572 48.7422C65.6752 48.5012 65.2804 48.1721 64.9736 47.7559C64.6668 47.3175 64.5137 46.7031 64.5137 45.9141C64.5137 44.9938 64.6669 44.3256 64.9736 43.9092C65.3024 43.4708 65.8285 43.251 66.5518 43.251C67.2528 43.251 67.7566 43.4815 68.0635 43.9414C68.3922 44.3797 68.5566 45.1033 68.5566 46.1113V47.46H71.6475V45.1914C71.6475 43.7448 71.2087 42.6485 70.332 41.9033C69.4553 41.1363 68.1842 40.7529 66.5186 40.7529C65.2257 40.7529 64.1958 40.9391 63.4287 41.3115C62.6616 41.6622 62.1129 42.2324 61.7842 43.0215C61.4774 43.7885 61.3242 44.7856 61.3242 46.0127C61.3242 47.0209 61.4557 47.8655 61.7188 48.5449C61.9818 49.2242 62.3764 49.7834 62.9023 50.2217C63.4283 50.6599 64.0532 51.0434 64.7764 51.3721C65.6529 51.7227 66.3652 52.0403 66.9131 52.3252C67.4827 52.5881 67.8991 52.9388 68.1621 53.377C68.4251 53.8152 68.5566 54.4731 68.5566 55.3496C68.5566 56.5332 68.3594 57.3448 67.9648 57.7832C67.5923 58.1993 67.0885 58.4072 66.4531 58.4072C66.0586 58.4072 65.7072 58.3199 65.4004 58.1445C65.0938 57.9473 64.853 57.5965 64.6777 57.0928C64.5024 56.5887 64.415 55.8756 64.415 54.9551V53.5742H61.1924V54.6924C61.1924 56.2028 61.3897 57.3743 61.7832 58.207C59.534 55.8581 58.2189 53.0286 58.2188 49.9814C58.2191 43.8707 63.5006 38.6289 71.0205 36.4004Z" fill="#06365C"/>
</svg>
