<svg width="100" height="100" viewBox="0 0 100 100" fill="none" xmlns="http://www.w3.org/2000/svg">
<path fill-rule="evenodd" clip-rule="evenodd" d="M68.7806 33.4468C70.0345 37.0741 70.9376 40.7772 71.2345 44.6155C71.6033 49.3772 71.4345 54.1054 70.4306 58.789C70.4033 58.9179 70.3454 59.039 70.3025 59.164C69.9876 59.1648 69.6665 59.1257 69.3587 59.1733C66.7579 59.5819 64.1595 60.0054 61.5611 60.4265C58.8751 60.8616 56.1853 61.2796 53.504 61.7444C52.554 61.9085 51.3783 61.7124 50.9947 63.0265C50.9837 63.0624 50.8743 63.0687 50.8111 63.089L50.9408 55.2366L50.8087 36.2897L52.0603 36.0749C54.1072 35.7397 56.154 35.3999 58.2025 35.0741C60.647 34.6858 63.0939 34.3085 65.54 33.9296C66.6189 33.7616 67.6993 33.6077 68.7806 33.4468Z" fill="#439934"/>
<path fill-rule="evenodd" clip-rule="evenodd" d="M48.2254 85.9789C46.9051 84.8438 45.5387 83.7586 44.2731 82.5648C37.4629 76.1414 32.4817 68.5813 30.0285 59.4664C29.3528 56.9578 28.902 54.4086 28.7575 51.8164C28.6559 50.0023 28.509 48.1719 28.6371 46.3672C28.9785 41.5672 29.6723 36.8133 31.0801 32.1898L31.1575 32.082C31.2942 32.2641 31.491 32.425 31.5606 32.6305C32.9345 36.6773 34.2996 40.7271 35.6559 44.7797C39.92 57.5141 44.1785 70.2516 48.4496 82.9828C48.5332 83.2313 48.7496 83.4352 48.9051 83.6594L48.2254 85.9789Z" fill="#45A538"/>
<path fill-rule="evenodd" clip-rule="evenodd" d="M68.7794 33.4464C67.6982 33.6074 66.6169 33.7613 65.538 33.9277C63.0919 34.3066 60.645 34.6839 58.2005 35.0722C56.1521 35.398 54.1052 35.7378 52.0583 36.073L50.8068 36.2878L50.7974 35.4714C50.756 34.8003 50.6849 34.13 50.6771 33.4589C50.6232 29.1792 50.5896 24.8996 50.5364 20.6199C50.5036 17.941 50.4544 15.2628 50.3997 12.5847C50.3661 10.9207 50.3302 9.25581 50.2552 7.59409C50.2146 6.70112 50.0708 5.81284 50.0122 4.91987C49.9794 4.40659 50.0247 3.8894 50.0349 3.37378C50.6732 4.6105 51.2974 5.85659 51.9536 7.08394C52.9904 9.02456 54.6419 10.4542 56.1286 12.0144C62.006 18.18 66.1786 25.3488 68.7794 33.4464Z" fill="#46A037"/>
<path fill-rule="evenodd" clip-rule="evenodd" d="M50.8107 63.0891C50.874 63.0688 50.9842 63.0625 50.9943 63.0266C51.3779 61.7125 52.5537 61.9086 53.5037 61.7446C56.1849 61.2805 58.8748 60.8617 61.5607 60.4266C64.1592 60.0055 66.7576 59.5821 69.3584 59.1735C69.6662 59.125 69.9873 59.1649 70.3021 59.1641C69.8162 60.8985 69.4334 62.6703 68.817 64.3571C68.117 66.2703 67.2701 68.1375 66.3709 69.968C65.0256 72.6987 63.3594 75.2593 61.4076 77.5953C59.9084 79.3985 58.2373 81.0649 56.5623 82.711C55.6365 83.6211 54.5451 84.3625 53.5295 85.1805L53.2662 85.0008L52.3177 84.1899L51.3365 82.0391C50.6662 79.5301 50.3006 76.9496 50.2474 74.3532L50.2654 73.9149L50.399 72.0196C50.4435 71.3727 50.5029 70.7266 50.5302 70.0782C50.631 67.7485 50.7185 65.4188 50.8107 63.0891Z" fill="#409433"/>
<path fill-rule="evenodd" clip-rule="evenodd" d="M50.8093 63.0881C50.7171 65.4178 50.6296 67.7475 50.5304 70.0779C50.5031 70.7264 50.4437 71.3725 50.3991 72.0193L49.8015 72.2451C48.4741 68.3373 47.146 64.4709 45.8468 60.5943C43.6984 54.1811 41.5757 47.7576 39.4304 41.3428C37.6977 36.165 35.9529 30.9913 34.196 25.8217C34.114 25.5795 33.8781 25.3904 33.714 25.1764L37.539 18.1436C37.6702 18.3717 37.8437 18.585 37.9265 18.8303C39.698 24.0663 41.4605 29.3054 43.214 34.5475C45.4921 41.3678 47.7562 48.1936 50.0327 55.0147C50.1234 55.2873 50.2734 55.5389 50.4163 55.8443L50.9398 55.235L50.8093 63.0881Z" fill="#4FAA41"/>
<path fill-rule="evenodd" clip-rule="evenodd" d="M33.7167 25.1768C33.8807 25.3908 34.1159 25.5799 34.1987 25.8221C35.9555 30.9917 37.7003 36.1654 39.4331 41.3432C41.5784 47.758 43.701 54.1814 45.8495 60.5947C47.1479 64.4705 48.476 68.3377 49.8042 72.2455L50.4018 72.0197L50.2682 73.915L50.1471 74.3518C49.9393 76.4268 49.7643 78.5065 49.5112 80.5768C49.3838 81.6143 49.1135 82.633 48.9081 83.6604C48.7534 83.4361 48.5362 83.2322 48.4526 82.9838C44.1815 70.2518 39.9229 57.515 35.6588 44.7807C34.3023 40.728 32.9372 36.6783 31.5635 32.6314C31.494 32.426 31.2979 32.265 31.1604 32.083L33.7167 25.1768Z" fill="#4AA73C"/>
<path fill-rule="evenodd" clip-rule="evenodd" d="M50.9406 55.235L50.4171 55.8443C50.2742 55.5389 50.1242 55.2865 50.0335 55.0146C47.7578 48.1936 45.4929 41.3678 43.2148 34.5475C41.4613 29.3054 39.6988 24.0663 37.9273 18.8303C37.8453 18.585 37.6718 18.3709 37.5398 18.1436L42.2703 11.9209C42.4195 12.1201 42.632 12.2975 42.7093 12.5217C44.0218 16.3665 45.3247 20.2149 46.6179 24.067C47.8265 27.6639 49.0171 31.2662 50.2398 34.8584C50.3218 35.099 50.607 35.2693 50.7976 35.4725L50.807 36.2889C50.8523 42.6035 50.8968 48.9188 50.9406 55.235Z" fill="#57AE47"/>
<path fill-rule="evenodd" clip-rule="evenodd" d="M50.7985 35.4725C50.6078 35.2694 50.3227 35.0991 50.2407 34.8584C49.018 31.2663 47.8274 27.6639 46.6188 24.067C45.3255 20.2155 44.0227 16.367 42.7102 12.5217C42.6328 12.2975 42.4203 12.1202 42.2711 11.9209C43.8094 10.4147 45.3 8.85454 46.9 7.41782C48.3227 6.14126 49.4664 4.77251 49.5188 2.75532C49.5211 2.67173 49.5649 2.58813 49.6321 2.35376L50.0375 3.37407C50.0274 3.89048 49.9813 4.40688 50.0149 4.92017C50.0735 5.81313 50.2172 6.70142 50.2578 7.59438C50.3328 9.2561 50.3688 10.9209 50.4024 12.585C50.4563 15.2631 50.5055 17.9413 50.5391 20.6202C50.5914 24.8999 50.6258 29.1795 50.6797 33.4592C50.686 34.1319 50.7563 34.8014 50.7985 35.4725Z" fill="#60B24F"/>
<path fill-rule="evenodd" clip-rule="evenodd" d="M48.9058 83.6597C49.1112 82.6323 49.3815 81.6128 49.5089 80.5761C49.7628 78.5065 49.937 76.4261 50.1448 74.3511L50.1964 74.3433L50.248 74.3519C50.3011 76.9483 50.6667 79.5288 51.337 82.0378C51.1995 82.219 51.005 82.3808 50.9323 82.5854C50.3644 84.187 49.8292 85.8011 49.2581 87.4026C49.18 87.6214 48.9628 87.7917 48.8097 87.9839L48.2261 85.9792L48.9058 83.6597Z" fill="#A9AA88"/>
<path fill-rule="evenodd" clip-rule="evenodd" d="M48.8092 87.9842C48.9623 87.792 49.1803 87.6217 49.2576 87.4029C49.8287 85.8014 50.3647 84.1881 50.9319 82.5857C51.0045 82.3811 51.1983 82.2193 51.3365 82.0381L52.317 84.1896C52.1233 84.4646 51.8561 84.7123 51.7483 85.0186L49.8701 90.5334C49.7928 90.7545 49.5287 90.9107 49.3522 91.0975L48.8092 87.9842Z" fill="#B6B598"/>
<path fill-rule="evenodd" clip-rule="evenodd" d="M49.354 91.0968C49.5313 90.9108 49.7946 90.7538 49.872 90.5327L51.7501 85.0179C51.8571 84.7124 52.1251 84.464 52.3188 84.189L53.2681 84.9991C52.8095 85.4522 52.5548 85.9757 52.7079 86.6374L52.4196 87.5812C52.2884 87.7429 52.0985 87.8835 52.0337 88.0686C51.3782 89.946 50.7524 91.8335 50.0923 93.7108C50.0087 93.9491 49.7767 94.1358 49.6126 94.3452C49.5272 93.2624 49.441 92.1796 49.354 91.0968Z" fill="#C2C1A7"/>
<path fill-rule="evenodd" clip-rule="evenodd" d="M49.6117 94.3458C49.7749 94.1357 50.007 93.949 50.0914 93.7115C50.7515 91.8349 51.3773 89.9474 52.0328 88.0693C52.0976 87.8849 52.2867 87.7435 52.4187 87.5818L52.021 91.9138C51.9148 92.0365 51.7609 92.1435 51.7101 92.2865C51.2609 93.5474 50.8375 94.8177 50.3867 96.0787C50.2937 96.3388 50.1156 96.5685 49.9765 96.8115C49.8531 96.6498 49.632 96.4935 49.6218 96.3248C49.582 95.6677 49.6093 95.006 49.6117 94.3458Z" fill="#CECDB7"/>
<path fill-rule="evenodd" clip-rule="evenodd" d="M49.9764 96.8117C50.1155 96.568 50.2936 96.3383 50.3866 96.0789C50.8382 94.8188 51.2608 93.5484 51.71 92.2867C51.7608 92.1437 51.9155 92.0375 52.021 91.9141L52.0303 94.7578L51.0788 97.1984L49.9764 96.8117Z" fill="#DBDAC7"/>
<path fill-rule="evenodd" clip-rule="evenodd" d="M51.0796 97.1984L52.0312 94.7578L52.2272 97.6453L51.0796 97.1984Z" fill="#EBE9DC"/>
<path fill-rule="evenodd" clip-rule="evenodd" d="M52.7064 86.6393C52.5533 85.9775 52.8072 85.4533 53.2666 85.001L53.5298 85.1807L52.7064 86.6393Z" fill="#CECDB7"/>
<path fill-rule="evenodd" clip-rule="evenodd" d="M50.248 74.3538L50.1965 74.3452L50.1449 74.353L50.266 73.9163L50.248 74.3538Z" fill="#4FAA41"/>
</svg>
