<svg width="100" height="100" viewBox="0 0 100 100" fill="none" xmlns="http://www.w3.org/2000/svg">
<path fill-rule="evenodd" clip-rule="evenodd" d="M27.4526 21.453C26.6247 21.4484 25.7998 21.5535 24.9995 21.7655V21.8749H25.1183C25.6921 22.7403 26.3315 23.5604 27.0308 24.328C27.512 25.2843 27.9308 26.2374 28.4089 27.1937L28.5276 27.0718C28.9725 26.7202 29.3206 26.2612 29.5392 25.7381C29.7579 25.2149 29.8399 24.6447 29.7776 24.0812C29.5142 23.6787 29.2742 23.2613 29.0589 22.8312C28.6995 22.2343 27.9214 21.9343 27.4433 21.4562" fill="#5D87A1"/>
<path fill-rule="evenodd" clip-rule="evenodd" d="M86.8106 73.6032C82.8687 73.3264 78.9132 73.8975 75.2106 75.2782C74.3138 75.6376 72.8825 75.6376 72.7575 76.7719C73.2388 77.2501 73.295 78.0219 73.7169 78.6876C74.537 80.0721 75.5888 81.3057 76.8263 82.3344C78.0763 83.2907 79.3263 84.2438 80.6544 85.0813C82.9825 86.5219 85.6169 87.3563 87.8856 88.7907C89.2044 89.6282 90.5169 90.7032 91.8356 91.6032C92.4919 92.0813 92.9075 92.8532 93.745 93.1657V92.9844C93.4967 92.3213 93.1925 91.6804 92.8356 91.0688C92.2388 90.4751 91.6388 89.9344 91.0388 89.3376C89.2865 87.0191 87.1892 84.983 84.82 83.3001C82.9044 81.9813 78.7169 80.1751 77.945 77.9876L77.8231 77.8657C79.2248 77.6669 80.6062 77.3448 81.9513 76.9032C83.9825 76.3657 85.8356 76.4876 87.9263 75.9657C88.8856 75.7251 90.62 75.1282 90.62 75.1282V74.1907C89.5513 73.1282 88.7856 71.7063 87.6606 70.7032C84.6027 68.0282 81.3407 65.5958 77.9044 63.4282C76.07 62.2438 73.7044 61.4813 71.7513 60.4719C71.045 60.1157 69.8763 59.9407 69.4481 59.3469C68.4769 57.9218 67.6637 56.3951 67.0231 54.7938C65.2752 51.4275 63.6584 47.9947 62.1763 44.5032C61.3048 42.1988 60.2978 39.948 59.1606 37.7626C53.6777 28.4474 45.7681 20.796 36.2763 15.6251C33.8818 14.4628 31.3345 13.6463 28.7106 13.2001C27.2294 13.1376 25.7544 13.0219 24.2763 12.9657C23.3248 12.3368 22.4174 11.6435 21.5606 10.8907C18.1794 8.75006 9.49188 4.15006 7.00438 10.2407C5.41063 14.0876 9.37313 17.8688 10.7325 19.8219C11.8767 21.2006 12.8865 22.6855 13.7481 24.2563C14.1638 25.2626 14.2825 26.3282 14.6856 27.3813C15.5562 30.0837 16.5861 32.732 17.77 35.3126C18.4054 36.587 19.1367 37.8114 19.9575 38.9751C20.4356 39.6282 21.2606 39.9126 21.4388 40.9907C20.7826 42.399 20.3241 43.8913 20.0763 45.4251C17.9914 52.0135 18.6085 59.1602 21.7919 65.2938C22.7294 66.7719 24.9856 70.0251 28.0013 68.7813C30.6606 67.7188 30.07 64.3469 30.8388 61.3938C31.0138 60.6782 30.8981 60.2094 31.2513 59.7376V60.3126C31.2513 60.3126 32.7606 63.6282 33.5106 65.3126C35.5497 68.4037 38.0835 71.1381 41.0106 73.4063C42.1692 74.4161 43.102 75.6587 43.7481 77.0532V78.1251H45.0825C45.0556 77.6416 44.922 77.17 44.6913 76.7443C44.4605 76.3185 44.1385 75.9491 43.7481 75.6626C42.6539 74.5363 41.6517 73.3241 40.7513 72.0376C38.3053 68.5538 36.1481 64.8759 34.3013 61.0407C33.3638 59.1657 32.5731 57.1094 31.8231 55.2376C31.4794 54.5157 31.4794 53.4251 30.9013 53.0501C29.8344 54.3136 28.9081 55.6894 28.1388 57.1532C27.2049 60.1125 26.6618 63.1812 26.5231 66.2813C26.295 66.3438 26.4075 66.2813 26.295 66.4001C24.4544 65.9157 23.82 63.9251 23.1263 62.2376C21.3349 57.0329 21.1541 51.409 22.6075 46.1001C23.0075 44.8344 24.7419 40.8469 24.0481 39.6376C23.7013 38.4844 22.5481 37.8251 21.9169 36.9157C21.1143 35.6903 20.421 34.3968 19.845 33.0501C18.4731 29.6876 17.7794 25.9376 16.2856 22.5501C15.4587 20.9209 14.496 19.3643 13.4075 17.8969C12.2037 16.431 11.1417 14.8541 10.2356 13.1876C9.94813 12.5219 9.545 11.4344 10.0044 10.7094C10.0354 10.508 10.1312 10.3222 10.2772 10.1801C10.4232 10.0381 10.6116 9.94741 10.8138 9.92193C11.5575 9.25943 13.6919 10.1032 14.4388 10.4657C16.4461 11.2559 18.3581 12.2696 20.1388 13.4876C20.945 14.0938 22.845 15.6282 22.845 15.6282H23.4075C25.32 16.0438 27.47 15.7438 29.27 16.2844C32.3001 17.2963 35.1922 18.682 37.8794 20.4094C45.7953 25.459 52.2315 32.5163 56.5325 40.8626C57.2513 42.2344 57.5544 43.4938 58.2106 44.9251C59.4606 47.8626 61.0231 50.8626 62.2731 53.7188C63.3764 56.5444 64.8026 59.2331 66.5231 61.7313C67.4169 62.9813 71.0075 63.6438 72.6231 64.3001C74.0256 64.787 75.4024 65.345 76.7481 65.9719C78.7825 67.2219 80.8106 68.6626 82.7263 70.0344C83.6794 70.7532 86.67 72.2469 86.8513 73.4438" fill="#00758F"/>
</svg>
