<svg width="100" height="100" viewBox="0 0 100 100" fill="none" xmlns="http://www.w3.org/2000/svg">
<g clip-path="url(#clip0_32_1411)">
<path d="M49.9998 100C77.614 100 99.9998 77.6142 99.9998 50C99.9998 22.3858 77.614 0 49.9998 0C22.3855 0 -0.000244141 22.3858 -0.000244141 50C-0.000244141 77.6142 22.3855 100 49.9998 100Z" fill="black"/>
<path d="M83.0597 87.5109L38.4112 30H29.9995V69.9836H36.7292V38.5461L77.7761 91.5805C79.6259 90.3431 81.391 88.9835 83.0597 87.5109Z" fill="url(#paint0_linear_32_1411)"/>
<path d="M63.8889 30H70.5553V70H63.8889V30Z" fill="url(#paint1_linear_32_1411)"/>
</g>
<defs>
<linearGradient id="paint0_linear_32_1411" x1="60.555" y1="64.7221" x2="80.2772" y2="89.1665" gradientUnits="userSpaceOnUse">
<stop stop-color="white"/>
<stop offset="1" stop-color="white" stop-opacity="0"/>
</linearGradient>
<linearGradient id="paint1_linear_32_1411" x1="67.222" y1="30" x2="67.1103" y2="59.3749" gradientUnits="userSpaceOnUse">
<stop stop-color="white"/>
<stop offset="1" stop-color="white" stop-opacity="0"/>
</linearGradient>
<clipPath id="clip0_32_1411">
<rect width="100" height="100" fill="white"/>
</clipPath>
</defs>
</svg>
