<svg width="100" height="100" viewBox="0 0 100 100" fill="none" xmlns="http://www.w3.org/2000/svg">
<g clip-path="url(#clip0_32_1327)">
<path d="M49.9993 0L6.24927 25V75L49.9993 100L93.7493 75V25L49.9993 0ZM74.9993 71.875C74.9993 72.7038 74.67 73.4987 74.084 74.0847C73.4979 74.6708 72.7031 75 71.8743 75H63.9993C63.5311 74.9997 63.0691 74.8942 62.6472 74.6914C62.2253 74.4886 61.8544 74.1936 61.5618 73.8281L37.4993 43.75V71.875C37.4993 72.7038 37.17 73.4987 36.584 74.0847C35.9979 74.6708 35.2031 75 34.3743 75H28.1243C27.2955 75 26.5006 74.6708 25.9146 74.0847C25.3285 73.4987 24.9993 72.7038 24.9993 71.875V28.125C24.9993 27.2962 25.3285 26.5013 25.9146 25.9153C26.5006 25.3292 27.2955 25 28.1243 25H35.9993C36.4674 25.0003 36.9295 25.1058 37.3514 25.3086C37.7733 25.5114 38.1442 25.8064 38.4368 26.1719L62.4993 56.25V28.125C62.4993 27.2962 62.8285 26.5013 63.4146 25.9153C64.0006 25.3292 64.7955 25 65.6243 25H71.8743C72.7031 25 73.4979 25.3292 74.084 25.9153C74.67 26.5013 74.9993 27.2962 74.9993 28.125V71.875Z" fill="#43A047"/>
</g>
<defs>
<clipPath id="clip0_32_1327">
<rect width="100" height="100" fill="white"/>
</clipPath>
</defs>
</svg>
