<svg width="100%" height="100%" viewBox="0 0 100 100" fill="none" xmlns="http://www.w3.org/2000/svg">
<g clip-path="url(#clip0_59_459)">
<path d="M0 5.51719C0 2.51953 2.51953 0 5.51719 0H94.4859C97.4844 0 100.004 2.51953 100.004 5.51719V94.4859C100.004 97.4844 97.4844 100.004 94.4859 100.004H5.51719C2.51953 100.004 0 97.4844 0 94.4859V5.51719ZM18.5078 81.7031H50.0664L50.1055 35.975H65.3352L65.2961 81.7414H80.5641L80.6031 20.7453L19.607 20.6672L19.5289 81.7031H18.5078Z" fill="#CB3837"/>
<path d="M19.6143 51.1879V20.7129H32.001C38.8135 20.7129 52.5275 20.7395 62.476 20.7715L80.5643 20.8301V81.6629H65.3486V35.9285H50.0455V81.6629H19.6143V51.1879Z" fill="white"/>
</g>
<defs>
<clipPath id="clip0_59_459">
<rect width="100" height="100" fill="white"/>
</clipPath>
</defs>
</svg>
