<svg width="100%" height="100%" viewBox="0 0 100 100" fill="none" xmlns="http://www.w3.org/2000/svg">
<path d="M67.6504 40.3101C84.0441 40.4142 97.3016 53.7346 97.3018 70.1528C97.3016 86.6355 83.9397 99.9974 67.457 99.9976C50.9743 99.9974 37.6125 86.6355 37.6123 70.1528C37.6123 64.7803 39.032 59.7391 41.5166 55.3843L58.3047 65.0767C57.469 66.5801 56.9922 68.3108 56.9922 70.1528C56.9924 75.9323 61.6775 80.6185 67.457 80.6187C73.2365 80.6185 77.9227 75.9323 77.9229 70.1528C77.9227 64.4379 73.3407 59.7962 67.6504 59.6929V40.3101Z" fill="#FDB813"/>
<path d="M67.457 0C83.9397 0.000143194 97.3016 13.362 97.3018 29.8447C97.3017 46.263 84.0442 59.5824 67.6504 59.6865V40.3047C73.3407 40.2014 77.9228 35.5597 77.9229 29.8447C77.9227 24.0652 73.2366 19.38 67.457 19.3799C61.6775 19.38 56.9923 24.0652 56.9922 29.8447C56.9922 31.6866 57.4693 33.4165 58.3047 34.9199L41.5166 44.6123C39.0322 40.2576 37.6123 35.2171 37.6123 29.8447C37.6124 13.362 50.9743 0.000126796 67.457 0Z" fill="#05B59D"/>
<path d="M32.543 20.1528C43.5249 20.1528 53.1196 26.0853 58.3018 34.9194L41.5156 44.6108C39.6849 41.5686 36.3521 39.5327 32.543 39.5327C26.7634 39.5328 22.0783 44.218 22.0781 49.9975C22.0781 55.7771 26.7634 60.4632 32.543 60.4633C36.3525 60.4632 39.6851 58.4263 41.5156 55.3832L58.3018 65.0746C53.1197 73.9091 43.5252 79.8422 32.543 79.8422C16.0602 79.8421 2.69824 66.4803 2.69824 49.9975C2.69837 33.5148 16.0602 20.1529 32.543 20.1528Z" fill="#00AEEF"/>
<path d="M38.9922 20.8488C47.2148 22.6606 54.1645 27.8645 58.3018 34.9172L41.5156 44.6086C39.0316 40.2542 37.6123 35.2139 37.6123 29.842C37.6123 26.7078 38.0963 23.6869 38.9922 20.8488Z" fill="#0095DA"/>
<path d="M58.3018 65.0733L58.0557 65.4844C53.892 72.3283 47.0535 77.3644 38.9912 79.1407C38.0961 76.3037 37.6124 73.2842 37.6123 70.1514C37.6123 64.7789 39.032 59.7376 41.5166 55.3829L58.3018 65.0733Z" fill="#F7941E"/>
<path d="M67.6504 40.3101C76.2852 40.365 84.0482 44.0881 89.4639 49.9976C84.0482 55.9067 76.2852 59.6291 67.6504 59.6841V40.3101Z" fill="#00A88E"/>
</svg>
