<svg width="100%" height="100%" viewBox="0 0 100 100" fill="none" xmlns="http://www.w3.org/2000/svg">
<path d="M48.9379 61.875L28.7712 50V29.1667C28.7712 19.9583 36.3712 12.5 45.7546 12.5C51.5754 12.5 56.7129 15.375 59.7754 19.7542" stroke="white" stroke-width="6.25" stroke-linecap="round" stroke-linejoin="round"/>
<path d="M40 79.9165C41.5661 82.2572 43.6866 84.1744 46.1728 85.4975C48.659 86.8205 51.4337 87.5084 54.25 87.4999C63.625 87.4999 71.2333 80.0415 71.2333 70.8332V49.9999L50.6667 37.9041" stroke="white" stroke-width="6.25" stroke-linecap="round" stroke-linejoin="round"/>
<path d="M39.3835 56.2505V31.9589L57.7669 21.5422C65.8919 16.938 76.2794 19.6672 80.971 27.638C82.4078 30.068 83.192 32.8281 83.2475 35.6505C83.303 38.473 82.6279 41.2618 81.2877 43.7464" stroke="white" stroke-width="6.25" stroke-linecap="round" stroke-linejoin="round"/>
<path d="M18.7086 56.2508C17.3678 58.735 16.692 61.5237 16.7467 64.3461C16.8015 67.1685 17.585 69.9288 19.0211 72.3592C23.7128 80.33 34.1045 83.0592 42.2295 78.4592L60.6128 68.0425L61.0128 44.7258" stroke="white" stroke-width="6.25" stroke-linecap="round" stroke-linejoin="round"/>
<path d="M71.2337 73.458C74.0738 73.3481 76.8412 72.5297 79.2842 71.0771C81.7272 69.6246 83.7681 67.584 85.2212 65.1413C89.9128 57.1705 87.1295 46.9747 79.0045 42.3747L60.617 31.958L39.5378 43.4372" stroke="white" stroke-width="6.25" stroke-linecap="round" stroke-linejoin="round"/>
<path d="M28.771 26.5417C25.9302 26.6509 23.1619 27.4691 20.7181 28.9217C18.2743 30.3743 16.2328 32.4151 14.7793 34.8584C10.0877 42.8334 12.871 53.0251 20.996 57.6251L39.3835 68.0417L60.4168 56.5834" stroke="white" stroke-width="6.25" stroke-linecap="round" stroke-linejoin="round"/>
</svg>
