<svg width="100%" height="100%" viewBox="0 0 100 100" fill="none" xmlns="http://www.w3.org/2000/svg">
<path d="M23.2114 32.8632C22.0176 25.0007 27.5614 17.9382 36.0301 15.3507C37.533 14.8943 39.1532 15.0265 40.5622 15.7206C41.9712 16.4146 43.0635 17.6185 43.6176 19.0882L46.3364 26.3382C46.774 27.5045 46.8532 28.775 46.5636 29.9866C46.2741 31.1983 45.6291 32.2957 44.7114 33.1382L36.6239 40.5444C36.2247 40.9099 35.9273 41.3727 35.7608 41.8876C35.5943 42.4026 35.5643 42.9519 35.6739 43.4819L35.7489 43.8069L35.9426 44.6194C36.9509 48.5664 38.4833 52.3605 40.4989 55.9007C42.6996 59.6595 45.4273 63.0838 48.5989 66.0694L48.8489 66.2944C49.2526 66.6528 49.7423 66.9004 50.2703 67.0133C50.7982 67.1261 51.3464 67.1002 51.8614 66.9382L62.3176 63.6444C63.5059 63.2713 64.7786 63.2618 65.9724 63.617C67.1662 63.9722 68.2266 64.6761 69.0176 65.6382L73.9676 71.6444C76.0301 74.1444 75.7801 77.8194 73.4114 80.0257C66.9301 86.0694 58.0176 87.3069 51.8176 82.3257C44.2146 76.1987 37.8073 68.7214 32.9176 60.2694C27.9801 51.8286 24.6908 42.5295 23.2114 32.8632ZM42.2239 43.8944L48.9239 37.7444C50.7604 36.0603 52.0516 33.8657 52.6318 31.4424C53.212 29.0191 53.0547 26.4777 52.1801 24.1444L49.4676 16.8944C48.3548 13.9367 46.1579 11.5135 43.3231 10.117C40.4883 8.72055 37.2283 8.45547 34.2051 9.37566C23.6864 12.5944 15.2426 22.0257 17.0301 33.8069C18.2801 42.0319 21.1614 52.4944 27.5176 63.4194C32.7933 72.5327 39.7048 80.5946 47.9051 87.2006C57.2051 94.6694 69.6176 92.1194 77.6801 84.6069C79.9871 82.4589 81.3874 79.5115 81.5953 76.3662C81.8032 73.2209 80.803 70.1149 78.7989 67.6819L73.8489 61.6694C72.2654 59.7474 70.1438 58.3422 67.7564 57.634C65.3689 56.9258 62.8243 56.9468 60.4489 57.6944L51.7676 60.4257C49.526 58.1148 47.5627 55.5494 45.9176 52.7819C44.3302 49.9833 43.0918 47.0006 42.2301 43.9007" fill="currentColor"/>
</svg>
