<svg width="100%" height="100%" viewBox="0 0 100 100" fill="none" xmlns="http://www.w3.org/2000/svg">
<path d="M50.0008 8.33301C41.2177 8.33257 32.7894 11.7987 26.5477 17.978C20.3059 24.1573 16.7553 32.5503 16.6675 41.333C16.6675 64.1663 46.0425 89.583 47.2925 90.6663C48.0472 91.3119 49.0077 91.6666 50.0008 91.6666C50.9939 91.6666 51.9544 91.3119 52.7091 90.6663C54.1675 89.583 83.3341 64.1663 83.3341 41.333C83.2463 32.5503 79.6957 24.1573 73.454 17.978C67.2122 11.7987 58.7839 8.33257 50.0008 8.33301ZM50.0008 81.8747C43.0425 75.2497 25.0008 56.8747 25.0008 41.333C25.0008 34.7026 27.6347 28.3437 32.3231 23.6553C37.0116 18.9669 43.3704 16.333 50.0008 16.333C56.6312 16.333 62.9901 18.9669 67.6785 23.6553C72.3669 28.3437 75.0008 34.7026 75.0008 41.333C75.0008 56.7497 56.9591 75.2497 50.0008 81.8747Z" fill="currentColor"/>
<path d="M50.0008 25C47.1165 25 44.297 25.8553 41.8988 27.4577C39.5005 29.0602 37.6314 31.3378 36.5276 34.0025C35.4238 36.6673 35.135 39.5995 35.6977 42.4284C36.2604 45.2573 37.6493 47.8558 39.6888 49.8953C41.7284 51.9348 44.3269 53.3238 47.1558 53.8865C49.9846 54.4492 52.9169 54.1604 55.5816 53.0566C58.2464 51.9528 60.524 50.0836 62.1264 47.6854C63.7289 45.2872 64.5842 42.4676 64.5842 39.5833C64.5842 35.7156 63.0477 32.0063 60.3128 29.2714C57.5779 26.5365 53.8686 25 50.0008 25ZM50.0008 45.8333C48.7647 45.8333 47.5563 45.4668 46.5285 44.78C45.5007 44.0933 44.6996 43.1171 44.2266 41.9751C43.7535 40.8331 43.6298 39.5764 43.8709 38.364C44.1121 37.1516 44.7073 36.038 45.5814 35.1639C46.4555 34.2898 47.5691 33.6946 48.7815 33.4534C49.9939 33.2123 51.2506 33.336 52.3926 33.8091C53.5346 34.2821 54.5108 35.0832 55.1975 36.111C55.8843 37.1388 56.2508 38.3472 56.2508 39.5833C56.2508 41.2409 55.5923 42.8307 54.4202 44.0028C53.2481 45.1749 51.6584 45.8333 50.0008 45.8333Z" fill="currentColor"/>
</svg>
