<svg width="100" height="100" viewBox="0 0 100 100" fill="none" xmlns="http://www.w3.org/2000/svg">
<path d="M49.5239 9.56849C46.2255 9.58412 43.077 9.86459 40.3051 10.3552C32.1411 11.7974 30.6598 14.8161 30.6598 20.3841V27.7365H49.9512V30.1872H23.4192C17.813 30.1872 12.9036 33.5568 11.3676 39.9693C9.59576 47.3169 9.51764 51.9029 11.3676 59.5755C12.7387 65.2873 16.0137 69.356 21.6208 69.356H28.2544V60.5419C28.2544 54.174 33.763 48.5576 40.3059 48.5576H59.5755C64.9395 48.5576 69.2208 44.1404 69.2208 38.7544V20.3849C69.2208 15.156 64.8098 11.2286 59.5755 10.356C56.2598 9.80443 52.8215 9.55365 49.5239 9.56849ZM39.0911 15.4818C41.0833 15.4818 42.7114 17.1357 42.7114 19.1701C42.7114 21.1958 41.084 22.8341 39.0911 22.8341C37.0911 22.8341 35.4715 21.1958 35.4715 19.1701C35.4708 17.1357 37.0911 15.4818 39.0911 15.4818Z" fill="url(#paint0_linear_32_1369)"/>
<path d="M71.6256 30.1871V38.7542C71.6256 45.3949 65.9943 50.9847 59.574 50.9847H40.3045C35.0264 50.9847 30.6592 55.5027 30.6592 60.7886V79.1597C30.6592 84.3871 35.2045 87.4628 40.3045 88.9621C46.4107 90.7566 52.267 91.0816 59.574 88.9621C64.4303 87.555 69.2193 84.7253 69.2193 79.1597V71.8066H49.9506V69.355H78.8662C84.4725 69.355 86.5631 65.4449 88.5131 59.5746C90.5271 53.5316 90.4404 47.7199 88.5131 39.9683C87.1271 34.3863 84.4811 30.1863 78.8662 30.1863L71.6256 30.1871ZM60.7873 76.7082C62.7881 76.7082 64.4076 78.3464 64.4076 80.3738C64.4076 82.4066 62.7873 84.0605 60.7873 84.0605C58.7951 84.0605 57.1678 82.4066 57.1678 80.3738C57.1678 78.3464 58.7951 76.7082 60.7873 76.7082Z" fill="url(#paint1_linear_32_1369)"/>
<path opacity="0.444" d="M76.0219 93.4349C76.0219 96.2029 64.4469 98.4474 50.1695 98.4474C35.8914 98.4474 24.3164 96.2029 24.3164 93.4349C24.3164 90.6669 35.8906 88.4216 50.1695 88.4216C64.4469 88.4216 76.0219 90.6654 76.0219 93.4349Z" fill="url(#paint2_radial_32_1369)"/>
<defs>
<linearGradient id="paint0_linear_32_1369" x1="8.07535" y1="11.8674" x2="52.5705" y2="49.8126" gradientUnits="userSpaceOnUse">
<stop stop-color="#5A9FD4"/>
<stop offset="1" stop-color="#306998"/>
</linearGradient>
<linearGradient id="paint1_linear_32_1369" x1="69.3106" y1="73.3998" x2="53.354" y2="51.0232" gradientUnits="userSpaceOnUse">
<stop stop-color="#FFD43B"/>
<stop offset="1" stop-color="#FFE873"/>
</linearGradient>
<radialGradient id="paint2_radial_32_1369" cx="0" cy="0" r="1" gradientUnits="userSpaceOnUse" gradientTransform="translate(50.065 93.2914) rotate(-90) scale(5.01431 22.0421)">
<stop stop-color="#B8B8B8" stop-opacity="0.498"/>
<stop offset="1" stop-color="#7F7F7F" stop-opacity="0"/>
</radialGradient>
</defs>
</svg>
