<svg width="100" height="100" viewBox="0 0 100 100" fill="none" xmlns="http://www.w3.org/2000/svg">
<path d="M49.9998 37.4995C73.2623 37.4995 87.4998 45.5933 87.4998 49.9995C87.4998 54.4058 73.2623 62.4995 49.9998 62.4995C26.7373 62.4995 12.4998 54.4058 12.4998 49.9995C12.4998 45.5933 26.7373 37.4995 49.9998 37.4995ZM49.9998 31.2495C25.8373 31.2495 6.24976 39.6433 6.24976 49.9995C6.24976 60.3558 25.8373 68.7495 49.9998 68.7495C74.1623 68.7495 93.7498 60.3558 93.7498 49.9995C93.7498 39.6433 74.1623 31.2495 49.9998 31.2495Z" fill="#00BCD4"/>
<path d="M50.0002 43.75C48.7641 43.75 47.5557 44.1166 46.5279 44.8033C45.5001 45.4901 44.699 46.4662 44.226 47.6082C43.753 48.7503 43.6292 50.0069 43.8703 51.2193C44.1115 52.4317 44.7068 53.5453 45.5808 54.4194C46.4549 55.2935 47.5686 55.8888 48.7809 56.1299C49.9933 56.3711 51.25 56.2473 52.392 55.7742C53.5341 55.3012 54.5102 54.5001 55.1969 53.4723C55.8837 52.4445 56.2502 51.2361 56.2502 50C56.2502 48.3424 55.5918 46.7527 54.4197 45.5806C53.2476 44.4085 51.6579 43.75 50.0002 43.75Z" fill="#00BCD4"/>
<path d="M32.6799 17.2092C38.983 17.2092 51.233 27.1374 60.8237 43.7499C72.4549 63.8967 72.5643 80.2717 68.7487 82.4749C68.3085 82.7031 67.8158 82.8109 67.3205 82.7874C61.0174 82.7874 48.7643 72.8624 39.1737 56.2499C27.5424 36.103 27.433 19.728 31.2487 17.5249C31.6898 17.2961 32.1836 17.1851 32.6799 17.2092ZM32.6768 10.9624C31.0842 10.9335 29.5126 11.3294 28.1237 12.1092C19.1549 17.2874 21.6799 38.4499 33.7612 59.3749C44.0237 77.1561 57.8862 89.0405 67.3237 89.0405C68.9158 89.0668 70.4863 88.6688 71.8737 87.8874C80.8424 82.7124 78.3174 61.5499 66.2362 40.6249C55.9737 22.8436 42.1112 10.9592 32.6737 10.9592L32.6768 10.9624Z" fill="#00BCD4"/>
<path d="M67.3223 17.2093C67.8175 17.1858 68.3102 17.2936 68.7504 17.5218C72.566 19.728 72.4566 36.103 60.8254 56.2499C51.2316 72.8624 38.9816 82.7906 32.6785 82.7906C32.1832 82.8141 31.6906 82.7063 31.2504 82.478C27.4348 80.2687 27.5441 63.8937 39.1754 43.7499C48.7691 27.1374 61.0191 17.2093 67.3223 17.2093ZM67.3223 10.9593C57.8848 10.9593 44.0254 22.8468 33.7598 40.6249C21.6848 61.5499 19.1566 82.7124 28.1254 87.8874C29.5137 88.6694 31.0853 89.0675 32.6785 89.0406C42.116 89.0406 55.9754 77.153 66.241 59.3749C78.316 38.4499 80.8441 17.2874 71.8754 12.1124C70.4871 11.3304 68.9155 10.9324 67.3223 10.9593Z" fill="#00BCD4"/>
</svg>
