<svg width="100%" height="100%" viewBox="0 0 100 100" fill="none" xmlns="http://www.w3.org/2000/svg">
<g clip-path="url(#clip0_22_554)">
<path d="M100 19.4115C99.5015 30.8931 83.3113 62.537 69.9368 72.4656C60.4005 80.455 41.7928 74.225 31.0767 76.7474L31.0102 76.8014C22.0802 83.4533 11.7627 80.1408 5.84813 77.1785C4.14519 76.3257 2.81604 75.4997 1.98535 74.9611L0 73.8212L1.8692 72.4474C1.87173 72.4538 2.09722 73.0096 2.79107 73.9379C3.68824 75.1318 5.64049 76.2359 6.00599 76.4334C25.6437 86.2272 33.2614 74.0275 35.8033 69.5571C39.7077 62.6897 40.6215 53.0393 44.8082 46.3065C56.7703 25.7674 74.3396 27.778 87.6724 23.5319C89.8821 22.9036 94.3844 21.952 100 19.4115ZM73.0046 25.5694C62.7123 27.7598 51.7138 31.4405 43.4069 45.7139C41.1639 49.3138 39.8182 53.7483 38.5304 58.0393C37.3923 61.8454 36.2044 65.7863 34.3936 68.964V68.9729C29.7831 77.0792 23.802 79.2516 18.3859 79.1081C27.1332 78.4438 30.8381 72.1151 32.566 69.0807C36.4619 62.2223 37.3757 52.572 41.5708 45.8393C50.0854 31.2069 62.2304 27.5174 73.0046 25.5694ZM79.133 38.6222C68.4003 47.222 46.1708 66.8459 33.5691 75.0596C36.6509 73.1746 39.1596 72.0882 43.0558 69.5748C42.5248 72.4157 46.5309 76.1512 46.5445 76.164C46.5281 76.1461 46.6527 76.164 46.6361 76.1461C43.3049 72.0974 44.501 68.9016 46.611 67.9592C49.5767 66.6304 70.743 70.4276 70.743 70.4276C70.7448 70.4243 70.7836 70.347 70.743 70.347C69.6964 70.0775 54.3284 66.2085 47.7992 66.2804C50.1084 64.5748 52.833 62.4111 56.1642 59.6014L56.1476 59.5924C64.9696 52.4917 69.688 47.8504 79.133 38.6222Z" fill="#6FBA2C"/>
</g>
<defs>
<clipPath id="clip0_22_554">
<rect width="100" height="61.4094" fill="white" transform="translate(0 19.2953)"/>
</clipPath>
</defs>
</svg>
