<svg width="100" height="100" viewBox="0 0 100 100" fill="none" xmlns="http://www.w3.org/2000/svg">
<g clip-path="url(#clip0_32_1364)">
<path d="M15.2124 14.0153C34.9702 -5.12497 66.5616 -4.61052 85.7018 15.25C87.8628 12.3688 89.7151 9.17894 91.053 5.88597C97.3303 25.0262 101.138 41.0793 99.6967 53.5305C98.9764 64.0266 94.8604 74.1114 88.0686 82.1379C70.3694 103.131 38.8803 105.806 17.8878 88.1067L17.4862 87.7493L17.4647 87.7352C17.3991 87.6894 17.3342 87.6416 17.2702 87.5918C17.0788 87.4426 16.9048 87.2812 16.7483 87.1075L16.6921 87.0434L16.0358 86.4602C15.3952 85.9114 14.7549 85.3625 14.187 84.7414L13.9776 84.5047C-5.16302 64.7469 -4.54506 33.1555 15.2124 14.0153ZM22.621 81.0063C20.7686 79.5657 18.0932 79.7711 16.6522 81.6235C15.3858 83.2524 15.3921 85.5176 16.6714 87.02L16.6921 87.0434L17.4862 87.7493L17.5639 87.8024C19.3624 88.9852 21.7827 88.7407 23.1628 87.0688L23.2385 86.9746C24.6792 85.1223 24.3706 82.4469 22.6214 81.0059M90.5389 11.0309C85.3932 21.836 72.6327 30.0684 61.6221 32.641C51.2288 35.1106 42.1729 33.0528 32.603 36.7571C10.7874 45.0926 11.1991 71.0243 23.1358 76.8899L23.8561 77.3016C23.8561 77.3016 32.4788 75.5871 41.0053 73.3231L41.7358 73.1278C45.1413 72.2098 48.4917 71.2098 51.2288 70.2012C65.4296 64.9532 81.0714 51.9871 86.2163 36.9629C83.5409 52.6043 70.0604 67.7313 56.5796 74.6262C49.3764 78.3305 43.8198 79.1536 31.9858 83.27C30.5452 83.7844 29.4131 84.2993 29.4131 84.2993L29.846 84.2407L30.1335 84.2036L30.4198 84.1676C33.0331 83.8434 35.3815 83.6817 35.3815 83.6817C52.1549 82.8582 78.4987 88.4153 90.7444 72.0536C103.299 55.3828 96.3014 28.4219 90.5389 11.0309Z" fill="#6DB33F"/>
<path d="M22.62 81.0054C24.3696 82.4461 24.6782 85.1214 23.2372 86.9738C21.797 88.8261 19.1212 89.032 17.2688 87.591C15.4165 86.15 15.211 83.475 16.6517 81.6226C18.0923 79.7703 20.7673 79.5648 22.62 81.0054ZM90.5376 11.03C96.3001 28.421 103.298 55.382 90.7435 72.0527C78.4974 88.4144 52.154 82.8574 35.3806 83.6808C35.3806 83.6808 33.0321 83.8429 30.4188 84.1668L30.1325 84.2027C29.8932 84.2332 29.6531 84.2651 29.4122 84.2984C29.4122 84.2984 30.5442 83.7836 31.9849 83.2691C43.8188 79.1531 49.3755 78.3296 56.5786 74.6253C70.0595 67.7308 83.5399 52.6035 86.2153 36.9621C81.0704 51.9863 65.4286 64.9523 51.2278 70.2003C41.4521 73.8019 23.8552 77.3007 23.8552 77.3007L23.1349 76.889C11.1981 71.0234 10.7864 45.0918 32.6021 36.7562C42.1724 33.0519 51.2278 35.1097 61.6216 32.6402C72.6321 30.0675 85.3923 21.8355 90.5376 11.03Z" fill="white"/>
</g>
<defs>
<clipPath id="clip0_32_1364">
<rect width="100" height="100" fill="white"/>
</clipPath>
</defs>
</svg>
