<svg width="100" height="100" viewBox="0 0 100 100" fill="none" xmlns="http://www.w3.org/2000/svg">
<path d="M28.1252 42.8123C31.0419 31.1456 38.3336 25.3123 50.0002 25.3123C67.5002 25.3123 69.6878 38.4373 78.4378 40.6248C84.2711 42.0831 89.3753 39.8956 93.7503 34.0623C90.8336 45.7289 83.5419 51.5623 71.8752 51.5623C54.3752 51.5623 52.1877 38.4373 43.4377 36.2498C37.6044 34.7914 32.5002 36.9789 28.1252 42.8123ZM6.25024 69.0623C9.16691 57.3956 16.4586 51.5623 28.1252 51.5623C45.6252 51.5623 47.8127 64.6873 56.5627 66.8748C62.3961 68.3331 67.5002 66.1456 71.8752 60.3123C68.9586 71.9789 61.6669 77.8123 50.0002 77.8123C32.5002 77.8123 30.3127 64.6873 21.5627 62.4998C15.7294 61.0414 10.6252 63.2289 6.25024 69.0623Z" fill="#44A8B3"/>
</svg>
