<svg width="100" height="100" viewBox="0 0 100 100" fill="none" xmlns="http://www.w3.org/2000/svg">
<path d="M17.709 36.719H95.5762V94.2737H17.709V36.719Z" fill="white"/>
<path d="M1.17114 49.929V98.7571H98.8274V1.10083H1.17114V49.929ZM79.8665 46.0227C82.2054 46.5655 84.3313 47.7888 85.9758 49.5383C86.8811 50.481 87.6681 51.5304 88.3196 52.6633C88.3196 52.7883 84.1008 55.6399 81.5305 57.2336C81.4368 57.2961 81.0618 56.8899 80.6477 56.2727C80.1785 55.4631 79.5118 54.7855 78.7099 54.3033C77.9079 53.821 76.9969 53.5498 76.0618 53.5149C73.1008 53.3118 71.1946 54.8665 71.2102 57.4211C71.1865 58.0571 71.3321 58.688 71.6321 59.2493C72.2805 60.6008 73.4915 61.4055 77.2883 63.0461C84.2805 66.054 87.2727 68.0383 89.1321 70.8586C91.2102 73.9836 91.6712 79.0305 90.2649 82.7649C88.7024 86.8274 84.8743 89.5852 79.4602 90.4993C76.9874 90.7827 74.489 90.7564 72.0227 90.4211C68.2427 89.7981 64.7609 87.9832 62.0852 85.2415C61.1868 84.2493 59.4368 81.6633 59.5461 81.4758C59.8308 81.2633 60.1311 81.0727 60.4446 80.9055L64.0618 78.9055L66.8665 77.2805L67.4524 78.1477C68.4416 79.562 69.7 80.7673 71.1555 81.6946C74.2805 83.3352 78.5461 83.1086 80.6555 81.2102C81.3637 80.5145 81.8056 79.5925 81.9041 78.6047C82.0026 77.6169 81.7515 76.6258 81.1946 75.804C80.4133 74.718 78.8508 73.804 74.4836 71.8977C69.4446 69.7258 67.2727 68.3821 65.2883 66.2415C64.0499 64.8286 63.1354 63.1621 62.6086 61.3586C62.2161 59.2981 62.1581 57.1877 62.4368 55.1086C63.4758 50.2415 67.1243 46.843 72.4524 45.8352C74.9199 45.5304 77.4193 45.5988 79.8665 46.0383V46.0227ZM56.9446 50.1165V54.1165H44.2649V90.2336H35.2727V54.1086H22.5618V50.2024C22.5219 48.8553 22.5532 47.5071 22.6555 46.1633C22.718 46.093 30.468 46.093 39.843 46.093H56.8977L56.9446 50.1165Z" fill="#007ACC"/>
</svg>
