<svg width="100%" height="100%" viewBox="0 0 100 100" fill="none" xmlns="http://www.w3.org/2000/svg">
<path d="M22.8007 64.6198C22.1584 64.6198 21.7504 64.2482 21.7504 63.691V62.0503H22.2747V63.6441C22.2747 63.9688 22.4639 64.1753 22.8007 64.1753C23.1375 64.1753 23.325 63.9688 23.325 63.6441V62.0503H23.8494V63.691C23.8494 64.2465 23.4466 64.6198 22.8007 64.6198ZM24.2791 64.5555V62.0503H24.7167L25.8729 63.6458H25.9007V62.0503H26.4025V64.5555H25.9685L24.8087 62.9531H24.7809V64.5555H24.2791ZM26.834 64.5555V62.0503H27.3584V64.5555H26.834ZM28.4445 64.5555L27.6094 62.0503H28.1979L28.7518 63.9722H28.783L29.3351 62.0503H29.9254L29.0903 64.5555H28.4445ZM30.1764 64.5555V62.0503H31.8361V62.4826H30.7007V63.0868H31.7719V63.4895H30.7007V64.1232H31.8361V64.5555H30.1764ZM32.2105 64.5555V62.0503H33.2538C33.8233 62.0503 34.1497 62.3542 34.1497 62.8472V62.8506C34.1497 63.1719 33.983 63.4479 33.6966 63.5608L34.2244 64.5555H33.6306L33.1636 63.6389H32.7347V64.5555H32.2105ZM32.7347 63.2569H33.1966C33.4587 63.2569 33.6133 63.1076 33.6133 62.8611V62.8576C33.6133 62.6163 33.4518 62.4601 33.1896 62.4601H32.7347V63.2569ZM35.3973 64.6198C34.7983 64.6198 34.4198 64.3333 34.3903 63.8889L34.3886 63.8611H34.8938L34.8955 63.8784C34.9146 64.066 35.1177 64.1926 35.4111 64.1926C35.6907 64.1926 35.8834 64.059 35.8834 63.8663V63.8645C35.8834 63.6996 35.7601 63.6076 35.4494 63.5434L35.1855 63.4895C34.6646 63.3836 34.4407 63.1406 34.4407 62.7604V62.7586C34.4407 62.2934 34.8399 61.9861 35.3955 61.9861C35.9806 61.9861 36.3244 62.2951 36.3574 62.7135L36.359 62.7361H35.866L35.8625 62.7153C35.833 62.5364 35.6594 62.4114 35.3955 62.4114C35.1368 62.4132 34.9649 62.5312 34.9649 62.7188V62.7204C34.9649 62.8836 35.0865 62.9809 35.3816 63.0416L35.6473 63.0954C36.1768 63.2049 36.4077 63.4166 36.4077 63.8073V63.809C36.4077 64.3055 36.0223 64.6198 35.3973 64.6198ZM36.7264 64.5555V62.0503H37.2507V64.5555H36.7264ZM38.2883 64.5555V62.4826H37.5365V62.0503H39.5643V62.4826H38.8125V64.5555H38.2883ZM40.5427 64.5555V63.6198L39.6713 62.0503H40.2389L40.791 63.1042H40.8223L41.3726 62.0503H41.9403L41.067 63.6198V64.5555H40.5427ZM42.9285 64.5555V62.0503H43.5291L44.2219 63.8836H44.2531L44.9441 62.0503H45.5448V64.5555H45.0778V62.8506H45.043L44.4007 64.5555H44.0726L43.4303 62.8506H43.3955V64.5555H42.9285ZM45.7976 64.5555L46.6674 62.0503H47.2837L48.1553 64.5555H47.6031L47.4174 63.9479H46.5337L46.3479 64.5555H45.7976ZM46.9608 62.5503L46.6535 63.5555H47.2976L46.992 62.5503H46.9608ZM48.4028 64.5555V62.0503H48.9271V63.1753H48.9584L49.8837 62.0503H50.467L49.5538 63.1475L50.5313 64.5555H49.9028L49.1754 63.4913L48.9271 63.7899V64.5555H48.4028ZM50.7494 64.5555V62.0503H52.409V62.4826H51.2736V63.0868H52.3448V63.4895H51.2736V64.1232H52.409V64.5555H50.7494ZM53.8319 64.6198C53.1896 64.6198 52.7816 64.2482 52.7816 63.691V62.0503H53.3059V63.6441C53.3059 63.9688 53.4951 64.1753 53.8319 64.1753C54.1688 64.1753 54.3563 63.9688 54.3563 63.6441V62.0503H54.8806V63.691C54.8806 64.2465 54.4778 64.6198 53.8319 64.6198ZM56.2063 64.6198C55.6074 64.6198 55.2288 64.3333 55.1994 63.8889L55.1976 63.8611H55.7028L55.7046 63.8784C55.7236 64.066 55.9268 64.1926 56.2201 64.1926C56.4997 64.1926 56.6924 64.059 56.6924 63.8663V63.8645C56.6924 63.6996 56.5691 63.6076 56.2584 63.5434L55.9945 63.4895C55.4736 63.3836 55.2497 63.1406 55.2497 62.7604V62.7586C55.2497 62.2934 55.649 61.9861 56.2046 61.9861C56.7896 61.9861 57.1334 62.2951 57.1664 62.7135L57.168 62.7361H56.675L56.6716 62.7153C56.642 62.5364 56.4685 62.4114 56.2046 62.4114C55.9458 62.4132 55.774 62.5312 55.774 62.7188V62.7204C55.774 62.8836 55.8955 62.9809 56.1907 63.0416L56.4563 63.0954C56.9858 63.2049 57.2167 63.4166 57.2167 63.8073V63.809C57.2167 64.3055 56.8313 64.6198 56.2063 64.6198ZM59.3386 64.6198C58.6129 64.6198 58.1633 64.1163 58.1633 63.3038V63.3003C58.1633 62.4879 58.6111 61.9861 59.3386 61.9861C59.9324 61.9861 60.3768 62.3645 60.4254 62.8941V62.9149H59.9149V62.9028C59.8611 62.6215 59.6371 62.4305 59.3386 62.4305C58.9445 62.4305 58.6997 62.7621 58.6997 63.3003V63.3038C58.6997 63.842 58.9445 64.1753 59.3403 64.1753C59.6407 64.1753 59.8577 64 59.9133 63.7326L59.9167 63.7188H60.4271L60.4254 63.7379C60.3716 64.2621 59.9427 64.6198 59.3386 64.6198ZM60.7319 64.5555V62.0503H61.2563V63.0676H62.3847V62.0503H62.909V64.5555H62.3847V63.5H61.2563V64.5555H60.7319ZM63.1601 64.5555L64.0299 62.0503H64.6463L65.5177 64.5555H64.9657L64.7799 63.9479H63.8963L63.7105 64.5555H63.1601ZM64.3233 62.5503L64.016 63.5555H64.6601L64.3546 62.5503H64.3233ZM65.7653 64.5555V62.0503H66.2896V64.1232H67.4041V64.5555H65.7653ZM67.7021 64.5555V62.0503H68.2264V64.1232H69.341V64.5555H67.7021ZM69.6389 64.5555V62.0503H71.2987V62.4826H70.1633V63.0868H71.2344V63.4895H70.1633V64.1232H71.2987V64.5555H69.6389ZM71.6729 64.5555V62.0503H72.1105L73.2667 63.6458H73.2945V62.0503H73.7963V64.5555H73.3621L72.2025 62.9531H72.1747V64.5555H71.6729ZM75.318 64.6198C74.5733 64.6198 74.1167 64.118 74.1167 63.3021V63.2986C74.1167 62.4947 74.5768 61.9861 75.3059 61.9861C75.8979 61.9861 76.3303 62.3264 76.4049 62.8264L76.4084 62.8438H75.8875L75.884 62.8264C75.8129 62.5781 75.5994 62.4305 75.3059 62.4305C74.9014 62.4305 74.6514 62.7604 74.6514 63.2934V63.2969C74.6514 63.8402 74.9136 64.1753 75.3268 64.1753C75.6705 64.1753 75.9066 63.9653 75.917 63.6493L75.9188 63.6024H75.3771V63.2204H76.4291V63.5382C76.4291 64.2031 76.0021 64.6198 75.318 64.6198ZM76.7549 64.5555V62.0503H78.4146V62.4826H77.2791V63.0868H78.3504V63.4895H77.2791V64.1232H78.4146V64.5555H76.7549Z" fill="white"/>
<path d="M36.4445 34.5557H16.4445C15.8312 34.5557 15.3334 35.0534 15.3334 35.6668V45.6668C15.3334 51.8023 20.3089 56.7779 26.4445 56.7779C32.58 56.7779 37.5556 51.8023 37.5556 45.6668V35.6668C37.5556 35.0534 37.0578 34.5557 36.4445 34.5557Z" fill="white"/>
<path d="M84.6667 55.6668V35.6668C84.6667 35.0534 84.1689 34.5557 83.5556 34.5557H73.5556C67.42 34.5557 62.4445 39.5312 62.4445 45.6668C62.4445 51.8023 67.42 56.7779 73.5556 56.7779H83.5556C84.1689 56.7779 84.6667 56.2801 84.6667 55.6668Z" fill="white"/>
<path d="M60 34.5557C54.4778 34.5557 50 37.9201 50 43.4446C50 37.9201 45.5222 34.5557 40 34.5557C39.3867 34.5557 38.8889 35.0534 38.8889 35.6668V55.6668C38.8889 56.2801 39.3867 56.7779 40 56.7779H60C60.6134 56.7779 61.1111 56.2801 61.1111 55.6668V35.6668C61.1111 35.0534 60.6134 34.5557 60 34.5557Z" fill="white"/>
</svg>
