<svg width="100%" height="100%" viewBox="0 0 100 100" fill="none" xmlns="http://www.w3.org/2000/svg">
<g clip-path="url(#clip0_66_3871)">
<path d="M92.4814 28.4983C91.9716 26.6141 90.977 24.8963 89.5968 23.5161C88.2166 22.1358 86.4989 21.1412 84.6148 20.6313C77.7169 18.75 49.955 18.75 49.955 18.75C49.955 18.75 22.1918 18.8069 15.2939 20.6882C13.4097 21.1982 11.692 22.1928 10.3118 23.5732C8.93158 24.9535 7.93706 26.6713 7.42726 28.5556C5.3408 40.8118 4.53143 59.4875 7.48455 71.2535C7.9944 73.1377 8.98895 74.8554 10.3692 76.2357C11.7494 77.6159 13.4671 78.6106 15.3512 79.1205C22.2491 81.0017 50.0116 81.0017 50.0116 81.0017C50.0116 81.0017 77.7738 81.0017 84.6714 79.1205C86.5556 78.6106 88.2734 77.616 89.6536 76.2357C91.0339 74.8555 92.0285 73.1377 92.5384 71.2535C94.7391 58.9799 95.4172 40.3156 92.4814 28.4983Z" fill="#FF0000"/>
<path d="M41.1187 63.2153L64.1492 49.8757L41.1187 36.5361V63.2153Z" fill="white"/>
</g>
<defs>
<clipPath id="clip0_66_3871">
<rect width="88.9062" height="62.5" fill="white" transform="translate(5.547 18.75)"/>
</clipPath>
</defs>
</svg>
